<?xml version="1.0" standalone="no"?>
<!DOCTYPE svg PUBLIC "-//W3C//DTD SVG 20010904//EN"
 "http://www.w3.org/TR/2001/REC-SVG-20010904/DTD/svg10.dtd">
<svg version="1.0" xmlns="http://www.w3.org/2000/svg"
 width="800.000000pt" height="800.000000pt" viewBox="0 0 800.000000 800.000000"
 preserveAspectRatio="xMidYMid meet">

<g transform="translate(0.000000,800.000000) scale(0.100000,-0.100000)"
fill="#000000" stroke="none">
<path d="M1435 7549 c-22 -10 -52 -19 -66 -19 -63 0 -86 -11 -96 -43 -7 -26
-15 -33 -47 -39 -46 -10 -92 -41 -101 -68 -4 -13 -21 -24 -49 -31 -52 -13
-113 -61 -118 -92 -2 -15 -14 -25 -36 -33 -27 -9 -39 -23 -69 -82 -34 -70 -35
-73 -20 -109 10 -27 12 -45 5 -63 -24 -64 33 -219 81 -220 24 -1 110 -91 113
-120 2 -14 11 -36 21 -50 131 -180 140 -191 221 -268 21 -20 55 -53 76 -73 20
-20 54 -42 76 -49 21 -7 48 -21 59 -30 26 -24 117 -58 174 -65 91 -12 86 -7
114 -103 15 -49 27 -104 27 -122 0 -25 10 -43 46 -78 25 -26 57 -66 71 -90 18
-30 34 -45 54 -49 39 -8 53 -26 40 -52 -6 -11 -11 -59 -11 -107 l0 -87 -42
-39 c-23 -21 -38 -38 -34 -38 9 0 -27 -69 -90 -172 l-54 -86 0 -88 0 -87 -40
-37 c-22 -20 -40 -46 -40 -57 0 -11 -12 -30 -26 -44 -37 -34 -74 -112 -74
-155 0 -20 -10 -52 -21 -71 -13 -21 -23 -55 -24 -87 -4 -62 -19 -95 -71 -157
-20 -24 -46 -63 -56 -87 -25 -55 -48 -178 -48 -253 0 -48 -7 -71 -35 -126 -19
-37 -35 -74 -35 -82 0 -8 -9 -34 -21 -58 -11 -24 -23 -71 -26 -106 -4 -46 -13
-72 -34 -102 -52 -74 -84 -314 -82 -608 2 -225 13 -284 63 -332 19 -19 30 -39
30 -57 0 -37 44 -103 87 -129 19 -12 62 -46 96 -75 45 -39 73 -56 111 -64 82
-19 85 -20 114 -51 22 -24 40 -31 92 -38 36 -5 79 -15 97 -22 29 -12 37 -10
83 11 29 13 66 39 84 57 25 26 49 37 126 56 143 36 270 116 270 170 0 10 -10
31 -22 47 l-22 30 21 42 c12 24 25 66 28 93 4 28 19 77 32 110 26 62 26 71 7
223 -6 45 -3 58 15 82 14 20 21 44 21 74 0 42 20 78 66 121 41 39 73 145 81
269 6 102 15 126 43 126 11 0 20 4 20 9 0 5 3 16 6 24 3 9 -1 17 -9 19 -13 3
-12 12 4 64 11 34 26 64 34 68 8 3 15 1 15 -5 0 -16 33 -6 52 16 9 11 13 24 8
29 -11 11 18 93 36 100 8 3 14 1 14 -5 0 -6 7 -8 16 -5 10 4 18 -3 25 -23 6
-16 17 -32 25 -35 22 -8 -1 -46 -28 -46 -20 0 -20 -1 -3 -20 10 -11 22 -17 26
-14 5 3 6 -1 3 -9 -3 -8 6 -25 20 -38 14 -13 26 -31 26 -40 0 -10 15 -20 40
-28 23 -7 61 -32 87 -56 25 -24 50 -42 54 -39 5 3 17 1 27 -5 14 -7 21 -5 30
10 7 11 8 19 2 19 -5 0 -10 5 -10 10 0 6 13 1 30 -11 16 -13 33 -20 36 -16 4
3 13 -1 21 -9 9 -8 13 -18 10 -21 -4 -3 0 -15 8 -25 16 -24 1 -68 -22 -68 -14
0 -63 -93 -63 -121 0 -9 -3 -19 -7 -22 -11 -12 -12 -57 -1 -57 5 0 8 -6 5 -13
-3 -7 1 -21 8 -31 16 -21 1 -66 -21 -66 -14 0 -46 -55 -59 -100 -3 -14 -22
-54 -40 -90 -18 -36 -43 -96 -55 -135 -12 -38 -33 -99 -46 -135 -28 -74 -54
-240 -54 -348 0 -52 -5 -80 -18 -99 -13 -22 -17 -50 -18 -143 0 -109 -2 -118
-34 -185 -30 -63 -34 -80 -37 -175 -2 -58 -6 -128 -9 -156 -5 -48 1 -85 47
-258 6 -22 27 -60 46 -85 19 -25 41 -60 48 -78 9 -21 26 -37 49 -47 27 -11 37
-23 46 -53 5 -21 20 -49 33 -63 30 -34 91 -80 106 -80 7 0 27 -6 44 -14 120
-54 149 -64 203 -71 34 -3 75 -13 90 -21 36 -19 198 -44 283 -44 56 0 76 6
156 46 96 48 220 139 245 180 13 21 12 28 -7 67 -21 44 -21 44 -2 76 20 33 36
72 71 176 17 51 20 84 19 232 -1 129 -5 179 -16 199 -17 34 -11 158 11 217 8
20 14 52 14 70 0 17 8 46 17 62 13 24 17 58 18 160 1 148 7 177 47 257 26 53
49 71 62 50 3 -5 6 -113 7 -241 1 -220 0 -234 -19 -254 -27 -29 -44 -94 -31
-118 5 -10 13 -76 18 -147 4 -70 13 -138 20 -149 6 -12 11 -48 11 -81 0 -52 4
-66 35 -108 19 -27 40 -61 46 -75 5 -15 29 -40 52 -57 23 -16 59 -46 80 -64
21 -19 60 -42 88 -52 27 -10 66 -29 85 -43 49 -32 99 -47 224 -66 242 -37 316
-31 397 32 26 20 69 49 94 64 65 37 152 109 168 140 13 24 12 29 -5 48 -10 11
-34 27 -53 35 -33 14 -33 14 -28 67 3 28 15 86 27 127 15 53 19 89 15 121 -4
26 -2 63 3 82 7 25 6 54 -4 99 -7 34 -13 86 -14 114 0 28 -11 83 -24 122 l-25
72 29 151 c16 82 33 156 37 162 4 7 8 50 8 97 1 70 6 95 29 146 15 34 32 97
39 145 11 75 14 84 35 87 29 4 28 11 -8 79 -24 45 -30 67 -29 117 1 101 11
141 37 144 26 4 27 13 5 55 -9 18 -16 35 -15 40 1 4 -2 7 -8 7 -5 0 -12 16
-16 36 -7 38 10 84 31 84 7 0 18 7 25 15 11 13 9 20 -11 41 l-24 26 37 31 38
32 -35 1 c-19 0 -35 -4 -35 -10 0 -6 -5 -4 -10 4 -8 12 -10 8 -11 -15 -1 -16
0 -38 1 -49 1 -11 -3 -15 -9 -12 -6 4 -11 3 -11 -3 0 -5 -12 -11 -27 -13 -21
-2 -28 -8 -27 -25 0 -17 -3 -20 -14 -14 -8 5 -24 6 -35 3 -17 -4 -18 -2 -8 16
15 28 14 32 -6 25 -28 -11 -76 -65 -64 -72 6 -4 6 -12 2 -20 -5 -7 -13 -11
-19 -7 -6 3 -15 -2 -21 -11 -6 -10 -11 -14 -11 -9 0 5 -7 3 -15 -4 -14 -12
-14 -15 1 -31 10 -11 12 -19 7 -19 -6 0 -13 -16 -15 -35 -2 -19 0 -35 5 -35 4
0 5 -4 2 -10 -3 -5 -1 -18 5 -29 9 -17 14 -18 40 -10 16 6 29 14 28 17 -5 18
13 92 21 87 5 -3 11 1 14 7 3 10 9 11 26 1 25 -16 34 -16 26 -3 -11 17 21 11
38 -8 15 -17 15 -20 0 -42 -11 -16 -17 -47 -18 -95 -3 -83 -10 -102 -31 -84
-8 6 -14 7 -14 3 0 -5 9 -15 20 -22 11 -7 20 -21 20 -32 0 -10 9 -34 20 -53
l20 -34 -20 -26 c-14 -18 -19 -34 -14 -51 7 -27 -14 -166 -24 -166 -4 0 -13 9
-20 21 -18 28 -66 19 -94 -16 -11 -14 -25 -25 -33 -25 -7 0 -16 -6 -18 -12 -4
-10 -6 -10 -6 0 -1 6 -10 12 -20 12 -11 0 -23 5 -26 10 -3 5 -14 10 -23 10
-10 0 -4 -9 18 -25 18 -13 37 -26 42 -27 5 -2 6 -10 3 -19 -7 -18 -47 -18 -53
-1 -2 7 -10 12 -18 12 -18 0 -18 -37 0 -69 l13 -24 7 28 c6 22 9 25 21 15 8
-7 15 -21 15 -32 0 -10 4 -17 10 -13 5 3 7 12 4 19 -3 7 2 16 10 19 9 4 16 2
16 -3 0 -18 16 -10 29 14 10 18 10 29 2 45 -10 18 -9 21 9 21 23 0 42 -37 60
-116 12 -54 1 -150 -32 -273 -14 -49 -21 -109 -22 -171 -1 -87 1 -99 27 -141
l27 -46 -22 -15 -22 -15 22 -30 c12 -17 22 -36 22 -42 0 -6 5 -11 10 -11 15 0
12 -64 -5 -96 -17 -34 -19 -91 -4 -130 8 -23 6 -42 -12 -96 -12 -37 -25 -68
-30 -68 -5 0 -9 -9 -9 -19 0 -23 -23 -33 -57 -25 -18 5 -24 4 -19 -5 4 -6 4
-20 1 -32 -5 -16 -9 -18 -21 -8 -15 12 -29 6 -29 -14 0 -6 -15 -17 -33 -24
-19 -8 -31 -9 -27 -3 12 20 -14 10 -29 -11 -10 -15 -29 -23 -60 -26 -25 -3
-46 -10 -46 -14 0 -5 -17 -9 -38 -9 -24 0 -46 -7 -59 -19 -12 -12 -43 -22 -77
-26 -54 -7 -57 -9 -52 -31 7 -26 26 -52 64 -89 20 -18 21 -23 8 -28 -22 -9
-86 4 -86 17 0 7 -17 11 -45 10 -25 -1 -45 1 -45 5 0 3 -17 17 -37 31 -20 14
-47 36 -60 48 -13 13 -30 21 -38 18 -7 -2 -16 0 -19 7 -2 7 -5 4 -5 -5 -2 -31
-17 -20 -42 30 -13 26 -25 48 -25 50 -1 1 -15 4 -32 7 -42 5 -50 11 -67 51 -8
19 -27 47 -43 62 -48 44 -55 67 -36 107 16 34 15 35 -15 88 -35 61 -36 72 -23
177 9 77 3 114 -20 123 -9 3 1 18 28 43 53 50 58 70 39 144 -16 61 -14 80 8
80 7 0 20 12 31 26 15 21 16 30 7 47 -10 21 -18 61 -20 100 -1 9 -7 17 -15 17
-31 0 -25 32 15 75 27 29 40 52 38 67 -2 13 1 33 5 46 6 17 3 29 -9 43 -13 13
-15 22 -7 31 5 7 13 30 17 51 8 41 21 49 28 15 3 -16 5 -13 6 10 0 18 -4 42
-9 53 -9 16 -7 19 10 19 11 0 20 -4 20 -10 0 -13 114 -2 167 16 52 19 62 41
25 55 -56 20 -55 23 15 29 56 5 79 12 106 33 20 15 38 27 42 27 15 0 -41 -60
-66 -71 -16 -6 -29 -16 -29 -21 0 -6 11 -3 25 6 13 9 31 16 40 16 8 0 15 3 15
8 0 4 12 15 26 26 22 15 28 16 35 5 6 -10 9 -8 9 9 0 13 -4 21 -9 17 -14 -8 0
67 15 82 6 7 14 9 18 6 3 -4 6 -1 6 5 0 7 9 12 20 12 10 0 23 6 27 13 10 16
43 31 62 28 7 -1 10 2 7 7 -3 5 13 14 34 21 22 6 40 16 40 20 0 5 14 14 30 21
17 7 30 16 30 20 0 4 16 24 35 44 42 44 44 56 10 56 -36 0 -104 -31 -85 -38
33 -12 28 -27 -13 -39 -58 -17 -60 -17 -42 17 17 32 20 55 4 28 -5 -10 -14
-18 -20 -18 -5 0 -23 -14 -39 -30 -16 -17 -33 -30 -37 -30 -4 0 -16 -14 -25
-30 -18 -32 -39 -37 -83 -20 -20 7 -27 6 -31 -4 -4 -12 -12 -11 -45 2 -36 14
-41 14 -57 -1 -23 -21 -58 -22 -65 -2 -4 9 4 19 20 27 15 7 29 19 31 27 3 10
-6 7 -26 -7 -18 -13 -37 -19 -47 -15 -11 4 -21 0 -27 -11 -5 -9 -13 -14 -18
-11 -4 3 -20 1 -34 -5 -15 -5 -26 -6 -26 0 0 5 -9 11 -20 15 -10 3 -26 20 -34
37 -15 28 -14 31 5 47 l20 16 -25 24 c-19 18 -31 22 -55 16 -17 -4 -31 -11
-31 -16 0 -6 -5 -7 -10 -4 -6 3 -13 -1 -16 -9 -3 -9 -12 -16 -20 -16 -8 0 -14
-7 -14 -15 0 -9 6 -12 17 -9 12 4 8 -3 -9 -20 -16 -14 -28 -28 -28 -31 0 -10
35 -5 63 9 26 14 27 14 17 -5 -6 -10 -18 -19 -26 -19 -10 0 -14 -6 -10 -15 3
-8 1 -15 -4 -15 -5 0 -7 -7 -3 -17 6 -14 -2 -16 -70 -10 -71 5 -78 4 -92 -16
-24 -34 -17 -43 12 -16 23 21 25 22 18 4 -19 -49 -18 -54 7 -48 20 5 19 2 -8
-18 -34 -25 -39 -55 -16 -96 7 -13 10 -23 7 -23 -12 0 21 -51 63 -96 16 -18
22 -37 22 -69 0 -51 -16 -59 -50 -25 -11 11 -24 20 -30 20 -15 0 -11 -61 5
-90 20 -35 18 -40 -10 -27 -14 7 -25 15 -25 20 0 17 -18 5 -23 -15 -4 -12 -9
-19 -13 -15 -4 4 -13 -1 -19 -10 -9 -13 -17 -14 -26 -7 -8 6 -33 16 -56 23
-24 6 -43 16 -43 21 0 6 -7 10 -16 10 -8 0 -33 19 -55 41 -44 46 -57 47 -34 3
9 -18 15 -57 15 -105 0 -80 22 -151 36 -116 3 9 3 28 0 42 -5 19 -2 25 10 25
12 0 15 6 11 21 -9 36 22 35 56 -2 17 -19 32 -36 32 -39 0 -3 11 -20 23 -38
22 -31 23 -38 17 -125 -6 -80 -4 -99 14 -144 21 -53 17 -71 -7 -33 -17 28 -41
26 -38 -4 1 -14 8 -32 15 -40 16 -19 5 -76 -15 -76 -12 0 -20 -34 -15 -64 1
-4 -3 -14 -9 -21 -6 -7 -9 -23 -7 -36 4 -23 -26 -93 -44 -105 -25 -15 2 -84
61 -153 23 -27 23 -30 11 -50 -5 -8 -16 -11 -25 -8 -21 8 -20 -4 3 -50 11 -21
23 -63 26 -93 6 -50 4 -61 -26 -115 -18 -33 -32 -62 -31 -65 6 -17 -46 -130
-59 -130 -10 0 -17 -5 -63 -45 -29 -25 -29 -25 -10 -47 39 -45 45 -50 59 -44
8 3 15 2 15 -3 0 -5 -10 -11 -23 -15 -14 -3 -28 -18 -36 -38 -10 -26 -19 -33
-42 -35 -17 -1 -39 -13 -52 -28 -15 -17 -28 -23 -43 -19 -18 5 -21 13 -21 61
0 55 0 56 45 84 25 16 51 29 58 29 7 0 13 19 16 45 2 25 0 45 -3 45 -3 0 -18
-11 -33 -25 -16 -15 -39 -25 -57 -25 -16 0 -29 -4 -29 -9 0 -5 -22 -18 -50
-30 -27 -12 -50 -27 -50 -34 0 -9 -2 -9 -8 0 -4 6 -20 15 -35 18 -15 4 -27 13
-27 21 0 21 -8 17 -48 -21 -42 -39 -78 -47 -69 -15 3 11 1 20 -4 20 -5 0 -9
-4 -9 -10 0 -5 -16 -16 -35 -24 -35 -15 -42 -20 -95 -69 -34 -31 -41 -62 -12
-55 15 4 18 1 14 -18 -3 -19 -11 -24 -33 -24 -15 0 -31 5 -34 10 -4 6 -10 8
-15 5 -8 -5 -79 38 -90 55 -3 4 -20 10 -39 13 -19 3 -38 11 -42 18 -6 10 -10
10 -23 0 -12 -10 -17 -9 -26 9 -6 11 -10 28 -9 38 4 41 -1 49 -28 45 -25 -3
-31 2 -52 47 -16 33 -31 50 -42 50 -13 0 -16 5 -12 17 5 12 2 15 -10 10 -23
-9 -42 20 -43 66 0 28 -6 44 -19 51 -10 6 -29 21 -43 32 -26 21 -26 22 -8 48
17 27 17 28 -6 59 -38 51 -61 90 -49 83 7 -4 11 1 11 12 0 16 5 19 22 14 19
-5 21 -2 14 28 -3 18 -9 64 -13 102 -3 38 -10 71 -14 74 -14 9 -10 44 5 44 17
0 26 21 26 59 0 16 10 37 23 50 22 20 25 21 38 5 12 -15 15 -11 19 37 3 33 0
64 -7 80 -16 32 -33 120 -33 166 0 40 26 56 46 28 22 -30 28 -9 14 52 -8 35
-13 110 -12 191 2 120 4 136 25 170 13 20 28 66 34 102 17 101 73 208 73 140
0 -11 5 -20 10 -20 6 0 10 7 10 15 0 8 8 29 18 47 10 18 19 40 20 48 2 33 12
89 20 111 8 21 9 21 15 -9 12 -60 31 -33 41 58 1 14 5 32 8 40 13 32 16 60 7
66 -5 3 -7 10 -4 15 4 5 1 9 -6 9 -7 0 -9 8 -5 23 4 12 9 36 11 54 3 17 9 41
13 54 8 21 9 21 15 -9 12 -60 31 -33 41 58 1 14 5 32 8 40 13 32 16 60 7 66
-19 12 19 34 49 28 34 -7 76 16 94 50 6 12 7 18 3 14 -10 -9 -37 11 -30 22 3
5 1 20 -5 34 -7 18 -14 24 -26 19 -10 -4 -15 -2 -11 4 3 5 9 25 12 43 3 19 10
39 16 46 6 8 5 14 -6 18 -8 3 -15 14 -15 24 0 10 -3 22 -7 25 -3 4 -8 19 -9
33 -4 38 -11 40 -40 13 -25 -24 -26 -24 -40 -4 -9 12 -26 19 -49 19 -26 0 -32
3 -24 12 7 8 7 14 -1 19 -5 3 -10 3 -10 0 0 -3 -15 8 -32 24 -28 26 -34 28
-41 14 -8 -13 -11 -13 -18 -2 -6 11 -9 9 -9 -7 0 -12 -6 -34 -14 -49 -16 -31
-12 -51 15 -66 17 -9 19 -6 19 26 0 40 9 44 35 15 10 -11 26 -20 37 -20 26 0
23 -37 -4 -61 -13 -10 -33 -18 -45 -19 -13 0 -23 -6 -23 -14 0 -7 -15 -25 -34
-40 -35 -26 -66 -34 -66 -16 0 6 4 10 8 10 5 0 6 15 3 33 -4 31 -5 31 -12 7
-4 -14 -7 -19 -8 -12 -1 6 -10 12 -22 12 -16 0 -19 4 -14 18 24 60 25 69 10
105 -11 27 -19 35 -32 30 -9 -4 -14 -2 -11 3 6 9 -13 32 -29 37 -5 1 -7 7 -5
12 2 6 -2 4 -9 -2 -7 -7 -24 -13 -38 -13 -15 0 -44 -12 -66 -25 -22 -14 -48
-25 -57 -25 -18 0 -25 -17 -27 -64 -1 -36 -13 -50 -53 -67 -23 -9 -33 -10 -35
-2 -6 16 -33 5 -33 -13 0 -7 -10 -20 -22 -28 -21 -15 -24 -14 -45 12 -21 25
-22 26 -23 6 0 -17 -8 -23 -35 -28 -19 -4 -35 -10 -35 -15 0 -4 22 -23 50 -42
54 -37 62 -59 28 -74 -18 -8 -31 -6 -56 8 -31 19 -32 19 -26 1 4 -11 13 -26
20 -34 7 -8 16 -28 20 -45 4 -16 11 -32 15 -36 5 -3 12 -26 15 -52 5 -36 2
-55 -15 -89 -13 -24 -28 -47 -35 -53 -7 -5 -20 -25 -30 -42 -9 -18 -31 -40
-49 -49 -17 -9 -41 -25 -52 -36 -11 -11 -35 -28 -52 -39 -38 -22 -42 -49 -13
-86 12 -15 20 -41 20 -62 0 -23 3 -31 9 -23 12 19 21 -8 21 -59 0 -23 9 -56
22 -78 24 -42 19 -71 -12 -71 -18 0 -20 -6 -19 -83 1 -73 -2 -88 -24 -123 -31
-48 -83 -94 -107 -94 -32 0 -50 -12 -66 -42 -8 -16 -19 -26 -24 -23 -6 3 -7 0
-4 -8 3 -8 -6 -21 -20 -31 -33 -21 -39 -20 -33 4 3 11 1 20 -4 20 -5 0 -9 -7
-9 -15 0 -8 -7 -15 -15 -15 -9 0 -18 7 -21 15 -7 17 -40 20 -49 5 -17 -27 -84
-40 -157 -31 -5 1 -8 7 -8 14 0 7 -13 14 -30 15 -21 2 -32 -4 -40 -19 -10 -17
-20 -20 -58 -19 -57 3 -84 -5 -99 -30 -10 -14 -8 -21 8 -35 24 -22 9 -46 -24
-37 -31 7 -126 71 -140 94 -7 10 -17 18 -24 18 -7 0 -13 6 -13 14 0 12 -24 25
-53 30 -16 2 -37 39 -28 50 15 19 5 76 -15 91 -10 7 -27 20 -38 27 -10 8 -19
27 -19 41 0 15 -5 27 -12 27 -21 0 -35 58 -28 120 4 43 1 66 -11 90 -20 41
-21 100 -3 100 18 0 44 83 28 88 -6 2 -11 8 -11 13 0 6 5 7 11 3 9 -5 11 11 7
59 -4 43 -2 67 5 70 7 2 4 12 -6 27 -22 32 -23 58 -2 40 13 -11 15 -4 16 51 2
117 24 160 49 99 7 -16 16 -30 21 -30 9 0 10 18 13 221 1 86 4 111 19 126 9
11 17 24 17 29 1 11 36 54 44 54 3 0 6 -9 6 -20 0 -22 19 -28 22 -7 1 13 4 25
8 42 2 6 4 62 4 125 1 90 5 122 19 145 9 17 17 36 17 43 0 6 5 12 11 12 6 0 9
6 6 14 -3 8 1 17 9 20 9 3 14 20 14 43 0 36 11 54 48 77 7 4 25 -2 41 -13 32
-23 51 -27 51 -11 0 6 -6 10 -14 10 -10 0 -14 10 -11 36 1 20 -4 54 -13 75
-14 36 -14 41 3 59 13 14 22 17 30 10 10 -8 12 13 10 100 -2 93 1 115 17 141
15 24 24 30 41 25 31 -8 67 4 67 22 0 8 7 24 17 34 14 16 15 18 0 18 -25 0
-28 15 -7 38 27 29 52 127 44 178 -5 36 -3 42 21 58 18 12 24 23 20 35 -4 13
5 29 26 51 23 22 29 34 20 39 -9 6 -8 11 4 21 8 7 15 20 15 30 0 26 23 43 38
28 10 -10 17 -7 34 10 19 18 20 22 6 22 -26 0 -29 15 -8 38 28 30 52 127 44
179 -5 34 -3 44 10 49 11 4 16 18 16 44 0 22 5 42 11 46 8 5 6 10 -5 16 -9 5
-21 6 -28 2 -8 -5 -9 -2 -5 9 4 12 1 17 -9 17 -11 0 -15 6 -11 20 7 28 -8 34
-45 16 -37 -19 -53 -10 -63 35 -4 16 -11 29 -16 29 -5 0 -9 6 -9 14 0 8 -8 13
-17 12 -14 -1 -19 11 -25 58 -4 32 -12 64 -16 70 -9 11 -32 95 -32 115 0 6 6
8 13 6 6 -2 28 9 47 26 19 16 28 27 19 24 -10 -4 -16 0 -16 10 0 9 14 19 31
24 17 5 23 10 14 10 -10 1 -18 4 -18 7 0 16 43 64 58 64 22 1 62 30 41 30 -17
0 -111 49 -120 62 -3 5 -11 -26 -18 -69 -7 -43 -15 -84 -19 -91 -8 -16 -44
-35 -95 -52 -52 -16 -64 -3 -41 41 12 25 13 31 3 22 -35 -29 -172 -42 -155
-14 11 17 -61 61 -99 61 -50 0 -80 17 -64 36 9 11 8 14 -2 14 -20 0 -69 45
-69 63 0 8 6 17 13 20 6 3 -7 2 -30 0 -32 -4 -43 -2 -43 8 0 8 -12 25 -26 39
-22 20 -25 31 -21 62 5 41 -11 65 -39 54 -20 -8 -51 9 -58 31 -3 10 -20 24
-37 32 -21 9 -27 16 -19 21 9 6 0 19 -30 46 -93 83 -112 107 -107 131 2 13 -2
28 -10 35 -8 6 -20 23 -28 38 -12 23 -11 28 10 48 28 27 41 83 22 97 -25 18
-39 55 -32 86 4 16 11 29 16 29 5 0 18 9 29 20 11 11 34 23 50 26 16 4 36 14
45 24 14 16 14 18 0 23 -37 15 -1 58 61 73 46 12 93 44 87 59 -9 25 23 44 88
53 49 6 63 11 60 22 -17 66 -19 64 44 57 32 -3 63 -11 68 -16 14 -14 77 -14
77 -1 0 6 -9 10 -20 10 -21 0 -26 16 -11 38 7 11 22 10 83 -7 42 -12 83 -19
92 -15 9 3 37 1 63 -5 27 -7 66 -12 88 -13 22 0 46 -5 53 -11 7 -5 43 -9 80
-8 82 2 122 -10 122 -39 0 -11 5 -20 10 -20 6 0 10 -6 10 -12 1 -23 69 -87
119 -114 65 -33 80 -59 84 -137 2 -51 9 -74 31 -107 21 -33 30 -39 37 -29 6
10 9 7 9 -11 0 -31 51 -140 73 -159 9 -7 24 -11 32 -7 11 4 15 -2 15 -24 0
-23 -13 -42 -55 -84 -48 -47 -55 -59 -55 -93 0 -58 37 -96 84 -88 21 4 36 2
41 -5 6 -10 -21 -53 -57 -92 -36 -38 -41 -48 -28 -63 6 -8 8 -20 4 -27 -12
-19 -5 -70 12 -89 7 -8 17 -30 20 -48 5 -25 13 -33 36 -38 36 -7 46 -23 24
-39 -15 -11 -10 -15 39 -33 31 -12 62 -21 70 -21 25 0 17 -17 -17 -39 -18 -11
-28 -21 -21 -21 6 0 15 5 18 10 4 6 15 8 26 5 12 -4 19 -2 19 6 0 9 4 8 13 -3
13 -17 68 -38 99 -38 10 0 37 9 61 19 25 12 87 24 152 31 61 6 130 15 155 20
95 20 455 41 605 35 199 -8 323 -22 349 -40 30 -21 43 -18 18 4 -31 26 -29 43
4 30 15 -5 63 -8 108 -7 72 3 81 1 78 -14 -2 -10 2 -18 8 -18 5 0 10 5 10 11
0 6 6 5 14 -3 7 -8 34 -15 59 -17 45 -2 46 -1 53 33 3 21 13 38 24 41 45 14
93 86 68 101 -8 5 -5 10 8 15 17 7 17 8 2 8 -28 1 -21 21 22 61 47 43 52 65
14 57 -19 -3 -24 -1 -20 10 3 8 6 17 6 19 0 2 4 4 9 4 22 0 101 63 101 79 0
10 7 24 15 31 8 7 12 16 9 21 -6 10 42 55 69 64 9 4 17 11 17 17 0 6 12 23 28
37 15 14 33 38 40 52 12 23 17 25 70 21 72 -5 138 22 203 83 26 25 66 52 88
61 26 10 41 23 41 33 0 25 49 67 95 81 22 7 56 21 75 31 19 11 38 19 43 19 20
0 67 45 62 60 -4 13 0 16 24 12 31 -4 141 39 141 56 0 14 125 35 165 29 33 -5
34 -5 28 24 -7 36 0 36 46 0 20 -15 47 -32 61 -36 14 -4 34 -14 45 -21 28 -20
44 -17 38 5 -4 17 2 21 42 27 26 3 70 3 98 -1 69 -10 95 -10 138 -1 32 7 37 5
42 -13 5 -20 12 -21 107 -21 93 0 101 -1 89 -16 -17 -21 1 -35 79 -59 73 -23
141 -95 77 -83 -13 3 -22 2 -19 -3 9 -15 65 -38 109 -45 53 -7 60 -31 19 -63
-14 -11 -23 -24 -20 -29 3 -6 36 -15 73 -21 125 -22 121 -21 99 -37 -11 -8
-30 -14 -42 -14 -33 0 -39 -17 -15 -43 11 -12 34 -39 52 -60 17 -21 45 -45 60
-53 39 -20 37 -35 -3 -23 -33 9 -44 8 -173 -6 -77 -9 -100 -26 -111 -83 -8
-43 3 -53 26 -22 l20 25 0 -23 c0 -12 -7 -25 -16 -29 -13 -5 -13 -7 -2 -14 13
-9 12 -9 -42 -13 -8 -1 -18 8 -21 19 -6 17 -8 15 -14 -13 -9 -39 -59 -81 -69
-57 -11 29 -26 15 -26 -25 0 -22 4 -40 9 -40 5 0 11 -9 14 -21 4 -14 13 -20
29 -19 44 4 48 1 48 -41 0 -49 16 -44 18 6 1 20 6 43 12 53 18 28 6 -79 -13
-118 -18 -35 -15 -52 5 -32 15 15 55 15 60 0 3 -8 11 -7 27 4 22 16 66 13 55
-3 -3 -5 2 -9 10 -9 9 0 16 5 16 10 0 15 43 11 65 -6 14 -11 16 -18 8 -21 -7
-3 -13 -11 -13 -19 0 -8 -4 -14 -10 -14 -5 0 -10 -5 -10 -11 0 -5 5 -7 11 -4
21 14 76 6 112 -15 36 -22 47 -43 27 -55 -19 -11 -10 -22 14 -18 18 4 34 -6
70 -41 25 -26 46 -53 46 -61 0 -8 -1 -15 -2 -15 -2 0 -21 -7 -43 -14 l-39 -14
37 -15 c42 -18 47 -32 16 -42 -20 -7 -18 -10 20 -44 23 -21 41 -40 41 -43 0
-4 -16 -4 -35 -1 -39 6 -43 -1 -19 -35 9 -13 18 -39 19 -59 2 -19 11 -43 19
-52 26 -28 19 -48 -7 -23 -25 24 -46 30 -29 9 7 -8 8 -24 3 -43 -5 -18 -3 -40
5 -59 15 -37 29 -140 15 -110 -6 11 -19 31 -30 45 l-21 25 0 -37 c0 -21 -4
-38 -9 -38 -5 0 -12 -16 -15 -35 -4 -19 -14 -42 -23 -51 -16 -15 -15 -21 17
-81 20 -40 29 -67 23 -71 -6 -4 -16 -24 -22 -44 -7 -21 -17 -40 -22 -43 -12
-8 -12 51 1 94 7 26 6 46 -6 80 -10 29 -13 61 -10 84 7 39 -9 114 -27 132 -7
7 -7 3 -2 -10 4 -11 10 -43 12 -70 4 -39 1 -54 -11 -64 -15 -13 -16 -9 -11 40
6 50 3 61 -39 144 -25 49 -46 96 -47 105 -1 16 -37 100 -38 88 -2 -20 60 -190
83 -226 14 -23 26 -50 26 -59 0 -14 -3 -12 -13 7 -8 14 -30 50 -50 81 -43 67
-69 178 -48 203 11 13 15 13 27 1 8 -7 14 -18 14 -22 0 -5 7 -18 15 -29 14
-17 14 -17 3 11 -7 17 -18 40 -26 52 -14 23 -8 63 10 63 6 0 8 13 4 36 -4 20
-3 41 3 48 16 19 -6 94 -36 122 -14 13 -38 24 -52 25 -14 0 -48 2 -74 5 -55 5
-162 -19 -188 -42 -10 -9 -23 -13 -28 -9 -6 3 -11 1 -11 -4 0 -6 -16 -11 -35
-11 -19 0 -35 -4 -35 -10 0 -5 5 -10 10 -10 6 0 10 -4 10 -10 0 -5 -15 -10
-32 -10 -33 -1 -33 -1 -9 -14 l24 -13 -23 -16 c-22 -15 -22 -15 -2 -26 12 -6
28 -11 36 -11 23 0 20 -31 -4 -37 -11 -3 -20 -10 -20 -15 0 -5 6 -5 16 0 20
11 54 4 54 -10 0 -6 -11 -19 -25 -30 -14 -11 -25 -24 -25 -30 0 -6 11 0 24 13
64 64 81 62 46 -6 -28 -55 -21 -70 10 -21 27 45 54 51 31 8 -4 -9 -11 -37 -15
-62 -7 -43 -6 -44 9 -22 9 12 13 27 10 33 -8 11 22 49 38 49 6 0 8 -32 4 -88
-4 -49 -3 -93 2 -98 14 -15 22 -62 11 -69 -6 -3 -10 4 -10 17 0 14 -6 33 -14
43 -12 17 -14 15 -20 -19 -4 -20 -4 -41 0 -47 4 -7 1 -10 -7 -7 -8 2 -15 20
-17 39 -9 127 -27 152 -31 41 -2 -73 -11 -122 -22 -122 -11 0 -11 77 0 144 5
27 6 59 3 70 -6 20 -6 20 -13 -4 -4 -14 -7 -45 -8 -69 -1 -42 -19 -121 -31
-131 -3 -3 -11 -16 -18 -30 -39 -76 -76 -92 -53 -22 7 20 11 53 9 72 -3 34 -4
33 -22 -25 -21 -65 -54 -117 -68 -109 -4 3 -11 -8 -14 -25 -4 -16 -14 -32 -23
-34 -14 -4 -14 -5 2 -6 19 -1 23 -16 6 -26 -6 -4 -9 -12 -6 -19 2 -6 -5 -19
-15 -29 -18 -17 -18 -14 -14 90 2 60 2 99 -1 88 -3 -11 -9 -24 -14 -29 -5 -6
-9 -21 -9 -35 0 -37 -22 -105 -40 -124 -8 -9 -21 -23 -28 -32 -18 -22 -27 -19
-30 10 -1 18 5 28 21 35 12 5 17 9 10 9 -6 1 -13 9 -16 19 -3 15 -5 15 -12 -3
-4 -11 -17 -30 -28 -42 -16 -19 -18 -25 -7 -38 13 -16 12 -17 -25 -17 -72 0
-73 0 -42 25 28 24 34 41 17 52 -6 3 -14 -5 -20 -19 -6 -17 -14 -24 -25 -20
-10 4 -15 0 -15 -15 0 -12 -3 -21 -7 -21 -24 1 -36 25 -46 89 -7 40 -16 70
-22 68 -24 -8 -10 -167 15 -167 6 0 10 -7 10 -15 0 -8 -6 -15 -13 -15 -8 0
-24 32 -38 74 l-24 75 -21 -22 c-11 -12 -24 -31 -29 -42 -14 -34 -19 9 -5 51
7 19 9 38 6 41 -9 10 -26 -45 -27 -90 -1 -23 -3 -34 -6 -24 -2 9 -9 17 -14 17
-5 0 -9 8 -9 18 0 9 -5 35 -11 57 -10 37 -12 38 -25 20 -8 -10 -14 -30 -15
-44 -1 -36 -27 59 -34 123 -6 54 -15 75 -15 33 0 -14 -4 -29 -10 -32 -5 -3
-10 -16 -10 -27 0 -12 -3 -18 -7 -15 -3 4 -6 31 -5 60 1 28 -3 79 -8 112 -6
33 -11 80 -11 105 0 38 -2 41 -9 20 -4 -14 -8 -35 -9 -47 -1 -30 -22 -81 -28
-66 -7 19 27 136 44 148 8 6 18 36 23 65 4 32 8 43 9 26 1 -39 18 -23 29 29 9
41 12 39 30 -25 l9 -35 13 33 c6 17 18 32 26 32 10 0 14 14 14 53 0 57 19 104
21 55 1 -16 3 -32 4 -38 1 -5 3 -19 4 -30 1 -13 6 -17 16 -14 10 4 15 20 16
48 1 50 12 85 23 68 4 -7 12 -10 17 -7 5 4 9 -22 9 -60 0 -60 2 -65 17 -56 10
5 18 18 19 28 0 10 1 32 2 50 2 26 5 31 19 26 11 -4 14 -3 9 6 -5 8 -1 14 13
18 15 4 20 12 18 34 -1 16 -8 29 -14 29 -7 0 -13 12 -13 26 0 21 3 24 14 15
14 -12 46 -5 46 10 0 5 20 9 44 9 43 0 45 1 44 30 -1 17 -4 30 -8 30 -4 0 -12
11 -18 24 -10 22 -9 23 14 12 13 -6 24 -14 24 -18 0 -5 12 -8 26 -8 23 0 25 3
20 26 -7 27 -7 27 39 21 45 -7 46 -6 38 16 -9 24 -8 75 2 150 6 38 4 52 -10
68 -10 10 -24 19 -31 19 -6 0 -17 15 -24 33 l-11 32 -14 -32 c-8 -18 -17 -33
-20 -33 -3 0 -5 23 -4 50 1 28 6 50 11 50 4 0 8 7 8 15 0 18 -20 20 -20 3 -1
-7 -10 -24 -21 -37 -24 -29 -39 -16 -31 27 5 27 5 27 -16 8 -19 -17 -22 -17
-28 -2 -3 9 -10 13 -15 10 -5 -3 -9 0 -9 7 0 8 -4 8 -15 -1 -11 -9 -15 -9 -15
-1 0 26 60 102 90 114 8 4 -19 5 -60 2 -41 -2 -82 -4 -90 -5 -8 0 -21 -10 -28
-21 -13 -20 -12 -21 11 -15 17 4 27 1 31 -9 6 -17 -7 -27 -26 -20 -26 10 -100
-91 -102 -138 -1 -17 -5 -25 -13 -22 -8 2 -13 -4 -13 -15 0 -11 7 -20 16 -20
8 0 12 -4 9 -10 -3 -5 -15 -10 -25 -10 -37 0 -78 -34 -105 -87 -15 -30 -24
-60 -21 -68 3 -8 0 -17 -6 -21 -8 -5 -9 4 -5 30 5 34 29 90 79 187 10 20 18
47 18 58 0 12 5 19 10 16 6 -3 10 1 10 9 0 9 -4 16 -9 16 -13 0 -32 -26 -24
-33 3 -4 -1 -7 -10 -7 -11 0 -17 -8 -17 -25 0 -14 -4 -25 -10 -25 -5 0 -10
-10 -10 -22 0 -12 -3 -18 -7 -15 -6 7 -53 -98 -53 -120 0 -7 -5 -13 -11 -13
-7 0 -9 10 -7 25 3 13 2 22 -2 20 -19 -12 -55 -108 -72 -190 -16 -81 -17 -84
-13 -30 4 55 32 182 51 229 5 13 4 17 -4 12 -16 -10 -53 -129 -62 -201 l-7
-60 -2 57 c0 31 6 87 14 123 9 37 14 72 12 79 -9 24 -40 -134 -44 -221 l-4
-91 36 -36 c22 -22 30 -36 21 -36 -8 0 -18 5 -21 10 -4 6 -11 8 -16 4 -5 -3
-7 -10 -4 -15 4 -5 2 -9 -4 -9 -6 0 -16 -12 -24 -26 l-14 -26 -29 29 c-26 24
-56 73 -58 95 -1 3 -4 9 -8 13 -4 4 -4 20 -1 36 3 16 -4 68 -15 116 -11 49
-23 117 -26 153 -4 37 -12 69 -20 75 -9 7 -12 26 -8 63 2 33 0 58 -8 67 -18
21 -33 18 -27 -5 3 -11 1 -17 -4 -14 -6 3 -9 18 -8 32 4 56 1 62 -35 62 -19 0
-38 -5 -41 -10 -4 -6 -10 -8 -15 -5 -4 3 -6 -4 -3 -15 6 -23 14 -25 31 -8 9 9
12 9 12 0 0 -7 -4 -12 -10 -12 -5 0 -10 -9 -10 -20 0 -11 5 -20 10 -20 6 0 10
6 10 14 0 7 7 19 15 26 8 7 12 17 8 23 -3 6 -1 7 5 3 9 -5 9 -13 2 -26 -24
-45 -2 -193 40 -263 12 -21 20 -40 18 -42 -9 -9 -47 53 -58 95 -6 23 -13 40
-16 37 -13 -12 56 -176 91 -217 16 -19 55 -96 55 -110 0 -22 -20 -8 -36 25 -9
20 -20 38 -25 41 -18 11 -8 -63 14 -106 49 -95 101 -185 108 -188 4 -2 13 -20
20 -40 6 -20 17 -40 23 -44 7 -5 7 -8 -2 -8 -19 0 -52 28 -101 84 -38 44 -41
46 -35 20 4 -16 16 -37 26 -49 35 -36 58 -72 50 -79 -4 -4 0 -13 8 -19 9 -7
22 -27 29 -44 7 -18 16 -33 20 -33 6 0 41 -53 41 -62 0 -11 -50 -6 -60 7 -6 7
-18 11 -26 8 -8 -3 -14 0 -14 6 0 6 -7 11 -15 11 -12 0 -9 -9 11 -40 15 -22
34 -40 43 -40 13 0 14 -2 2 -9 -11 -7 -12 -13 -4 -23 6 -7 12 -16 12 -20 2
-11 50 -58 57 -55 3 1 24 -16 45 -38 36 -37 53 -85 29 -85 -5 0 -10 -12 -10
-26 0 -14 3 -23 8 -21 4 3 8 -13 9 -35 l3 -40 -28 29 c-51 52 -132 122 -132
114 0 -5 17 -24 38 -43 58 -52 99 -109 110 -150 11 -40 -2 -54 -13 -17 -6 17
-9 19 -16 8 -7 -12 -9 -12 -9 0 0 8 -3 12 -6 9 -3 -4 1 -19 9 -35 8 -15 17
-44 20 -63 3 -19 3 -29 0 -22 -2 6 -10 9 -15 6 -7 -4 -8 -2 -4 5 13 21 -3 49
-29 49 -14 0 -25 -4 -25 -9 0 -5 5 -9 10 -9 6 0 10 -7 10 -15 0 -8 -6 -15 -14
-15 -8 0 -17 -14 -21 -31 -4 -17 -13 -33 -20 -36 -8 -2 -11 -11 -8 -19 3 -8 0
-14 -6 -14 -6 0 -11 8 -11 17 0 19 -41 83 -53 83 -4 0 -1 -10 7 -22 18 -30 30
-69 19 -67 -23 4 -32 -4 -38 -31 -6 -29 -9 -30 -58 -31 -42 0 -48 -2 -29 -10
18 -7 22 -14 17 -30 -5 -15 -4 -19 4 -15 6 4 11 2 11 -3 0 -19 -14 -12 -40 19
-14 17 -29 30 -33 30 -5 0 -27 14 -50 32 -22 18 -38 28 -36 23 2 -6 11 -27 19
-47 8 -21 18 -38 22 -38 4 0 8 -9 8 -20 0 -11 6 -20 13 -20 7 0 5 -5 -5 -10
-17 -10 -14 -50 4 -50 10 0 4 -51 -9 -88 -5 -14 -2 -14 18 3 18 16 21 16 10 2
-8 -9 -11 -21 -7 -24 10 -11 26 19 21 38 -6 17 21 46 32 36 3 -4 14 -30 24
-59 10 -29 19 -48 19 -43 0 6 4 17 10 25 7 12 12 12 29 -4 23 -21 25 -18 11
18 -7 20 -6 24 5 19 8 -3 18 2 21 11 3 9 17 16 31 16 13 0 22 4 19 9 -6 9 34
24 43 16 2 -3 12 -28 21 -56 14 -41 19 -48 24 -31 4 11 14 23 22 26 8 3 12 1
9 -4 -6 -9 52 -69 67 -70 4 0 9 9 13 19 3 12 12 18 20 15 14 -6 38 28 33 49
-1 6 1 25 6 41 4 17 3 32 -3 35 -15 9 48 131 64 124 16 -5 34 25 36 59 1 17 3
18 6 6 6 -24 23 -23 23 0 0 30 34 119 38 100 6 -28 32 -22 32 7 0 14 -4 25
-10 25 -5 0 -10 4 -10 10 0 5 6 9 13 7 13 -2 14 12 2 57 -5 19 -4 27 2 23 6
-4 14 -23 17 -42 4 -22 13 -35 22 -35 8 0 12 4 9 10 -8 12 67 14 80 1 6 -4 22
-11 38 -15 22 -5 27 -3 27 11 0 14 2 15 9 5 4 -7 14 -15 22 -16 23 -5 54 -19
60 -28 12 -18 39 5 39 33 0 18 7 32 20 39 12 6 20 7 20 1 0 -14 38 -1 44 15 7
19 24 18 29 -3 4 -15 5 -14 6 3 0 11 8 29 16 40 8 10 15 33 15 49 1 17 4 24 7
18 9 -24 22 -13 29 22 6 31 14 40 36 36 4 0 5 6 2 14 -9 22 37 67 53 53 10 -8
13 -6 13 7 0 11 5 15 15 11 8 -3 15 0 15 7 0 7 9 18 20 24 16 11 21 9 34 -9
15 -21 15 -21 21 8 4 16 8 33 9 38 1 6 12 0 25 -13 25 -25 51 -21 51 8 0 33
22 36 47 7 l23 -27 0 44 c0 60 10 64 33 14 l20 -42 7 38 c8 42 20 61 20 30 0
-11 7 -34 15 -51 16 -31 12 -82 -6 -82 -5 0 -4 -9 3 -20 10 -16 10 -22 1 -28
-6 -4 -15 -19 -18 -35 -4 -15 -11 -24 -16 -21 -5 3 -6 10 -3 16 4 6 1 9 -7 6
-8 -3 -19 -15 -25 -27 -18 -35 -34 -48 -34 -28 0 16 -2 16 -22 -3 -12 -11 -29
-20 -38 -20 -9 0 -16 -9 -17 -22 -1 -12 -9 -28 -17 -36 -14 -14 -17 -14 -34 1
-21 19 -52 23 -52 6 0 -5 -10 -9 -22 -7 -19 3 -24 -3 -32 -39 -5 -23 -15 -44
-24 -48 -21 -8 -28 3 -16 23 17 26 12 97 -6 97 -8 0 -16 -9 -18 -20 -10 -51
-45 -107 -83 -132 -37 -24 -40 -30 -34 -57 15 -74 13 -81 -22 -80 -19 1 -33
-3 -33 -10 0 -6 -5 -4 -10 4 -8 12 -10 9 -10 -12 0 -28 -18 -47 -29 -31 -9 14
-54 43 -66 43 -5 -1 0 -9 11 -18 27 -23 38 -57 25 -79 -6 -10 -11 -13 -11 -7
0 6 -18 9 -47 6 -27 -2 -56 -3 -65 -3 -20 0 -24 -14 -8 -24 6 -3 10 -13 10
-21 0 -8 -4 -12 -10 -9 -5 3 -10 2 -10 -4 0 -5 -12 -11 -27 -13 -22 -2 -28 -8
-28 -26 0 -13 -11 -35 -23 -49 -12 -13 -22 -31 -22 -40 0 -8 -7 -21 -16 -30
-18 -19 -15 -84 5 -91 8 -3 11 0 7 6 -4 6 3 21 15 33 19 19 20 23 5 31 -14 8
-11 14 19 43 20 21 44 35 59 35 16 0 27 7 31 20 3 11 11 20 16 20 6 0 46 25
91 55 44 30 84 55 88 55 4 0 15 -20 24 -44 9 -25 23 -49 30 -55 26 -22 181
-29 297 -14 58 7 69 12 98 46 18 20 39 37 46 37 28 0 73 68 85 127 17 83 20
88 73 88 25 1 53 7 64 15 96 75 125 106 153 166 34 72 40 145 15 181 -9 13
-13 32 -9 51 5 23 16 34 55 53 60 27 67 47 45 122 -22 75 -21 87 7 87 13 0 32
6 42 14 18 13 17 16 -13 69 -43 76 -42 102 4 122 31 13 34 17 24 30 -7 8 -18
15 -25 15 -19 0 -65 58 -65 82 0 11 7 33 17 48 16 28 16 29 -50 131 -58 93
-66 110 -67 159 -4 92 -1 104 30 138 23 26 30 43 30 74 0 34 -6 47 -41 81 -54
54 -59 66 -59 135 0 57 -2 62 -46 111 -37 41 -45 56 -40 76 3 14 9 35 12 48 4
19 -3 26 -53 52 -45 24 -67 44 -96 88 -21 31 -44 57 -51 57 -8 0 -34 22 -58
49 -25 29 -63 58 -89 69 -25 11 -62 34 -81 51 -34 30 -40 31 -122 31 -75 0
-89 3 -108 22 -21 21 -28 22 -187 19 -92 -2 -184 -3 -207 -4 -27 -1 -47 4 -58
16 -28 28 -101 21 -218 -19 -131 -45 -204 -80 -309 -149 -46 -30 -100 -58
-119 -61 -50 -9 -87 -33 -117 -76 -14 -21 -55 -62 -92 -91 -111 -88 -113 -89
-191 -81 l-69 7 -37 -39 c-20 -22 -46 -49 -57 -62 -12 -13 -34 -30 -49 -38
-16 -8 -31 -26 -34 -42 -12 -50 -54 -109 -120 -170 -59 -54 -66 -65 -62 -91 2
-17 1 -32 -4 -33 -5 -2 -11 -28 -15 -58 -4 -36 -14 -61 -28 -76 -22 -22 -23
-22 -371 -20 -192 2 -375 7 -407 11 -35 5 -91 3 -140 -3 -45 -6 -158 -18 -252
-27 -187 -18 -413 -48 -460 -62 -16 -5 -39 -7 -50 -3 -36 11 -167 79 -188 97
-28 26 -87 152 -87 188 0 17 16 54 35 85 21 32 35 67 35 85 0 34 -29 68 -67
79 -12 4 -25 17 -29 28 -6 21 5 36 50 63 20 12 32 96 22 148 -5 29 -13 38 -41
47 -32 11 -37 17 -56 83 -12 40 -32 83 -45 97 -28 31 -44 71 -44 113 0 40 -30
90 -67 114 -51 32 -87 65 -119 110 -65 92 -81 97 -414 128 -96 9 -185 21 -198
26 -33 13 -61 10 -107 -12z m5587 -948 c16 -1 58 -74 58 -101 0 -15 30 -57 70
-100 32 -35 39 -53 15 -44 -15 6 -68 69 -98 117 -22 34 -41 36 -25 2 6 -14 14
-25 18 -25 4 0 10 -8 14 -17 3 -10 17 -34 31 -52 14 -19 23 -41 21 -48 -3 -7
-1 -15 4 -18 14 -9 13 -145 -1 -145 -6 0 -8 -9 -3 -22 3 -13 3 -20 -1 -16 -4
4 -9 24 -11 45 -8 86 -16 123 -25 123 -6 0 -8 4 -4 9 3 5 1 12 -5 16 -5 3 -10
15 -10 26 0 10 -4 19 -8 19 -5 0 -15 11 -22 25 -7 14 -23 25 -34 26 -12 0 -16
3 -10 5 9 4 9 13 1 34 -6 17 -15 30 -19 30 -14 0 -37 57 -32 81 2 13 2 18 -2
12 -8 -18 -24 -16 -24 1 0 15 31 25 65 20 11 -1 28 -3 37 -3z m-998 -166 c-7
-16 -44 -41 -44 -29 0 6 40 44 46 44 2 0 1 -7 -2 -15z m-85 -98 c-2 -1 -13 -9
-24 -17 -19 -14 -19 -14 -6 3 7 9 18 17 24 17 6 0 8 -1 6 -3z m-648 -34 c-12
-20 -14 -14 -5 12 4 9 9 14 11 11 3 -2 0 -13 -6 -23z m615 -157 c2 -14 0 -16
-9 -7 -18 18 -37 13 -70 -21 -17 -18 -27 -26 -22 -18 31 58 95 87 101 46z
m119 -64 c0 -46 -5 -66 -18 -79 -17 -17 -18 -17 -3 12 19 36 21 106 4 124 -11
11 -10 13 2 9 11 -4 15 -20 15 -66z m-360 -9 c-19 -45 -30 -57 -20 -23 3 14 9
33 11 43 3 9 10 17 15 17 5 0 2 -17 -6 -37z m-28 -75 c-3 -8 -6 -5 -6 6 -1 11
2 17 5 13 3 -3 4 -12 1 -19z m276 -65 c-7 -2 -21 -2 -30 0 -10 3 -4 5 12 5 17
0 24 -2 18 -5z m157 -19 c0 -8 -4 -12 -10 -9 -5 3 -10 13 -10 21 0 8 5 12 10
9 6 -3 10 -13 10 -21z m742 -44 c-21 -37 -27 -37 -46 0 l-14 30 38 0 39 0 -17
-30z m-94 -9 c-20 -25 -68 -51 -94 -51 -11 0 98 79 109 80 5 0 -2 -13 -15 -29z
m230 -70 c3 -16 -1 -22 -10 -19 -7 3 -15 15 -16 27 -3 16 1 22 10 19 7 -3 15
-15 16 -27z m-197 -203 c4 -44 -11 -138 -22 -138 -10 0 -12 92 -3 128 7 24 23
30 25 10z m44 -74 c-3 -24 -10 -44 -16 -44 -14 0 -11 84 3 98 18 18 22 1 13
-54z m155 -41 c0 -18 -10 -16 -26 5 -7 9 -13 33 -13 52 l0 35 19 -39 c11 -22
20 -46 20 -53z m-100 53 c0 -14 -4 -28 -10 -31 -6 -4 -10 7 -10 24 0 17 5 31
10 31 6 0 10 -11 10 -24z m100 -242 c0 -44 -14 -60 -22 -26 -7 26 3 83 13 76
5 -3 9 -25 9 -50z m-1298 -6 c-9 -9 -12 -7 -12 12 0 19 3 21 12 12 9 -9 9 -15
0 -24z m1335 -35 c-3 -10 -5 -2 -5 17 0 19 2 27 5 18 2 -10 2 -26 0 -35z m39
-41 c-12 -11 -16 6 -9 39 l8 34 3 -33 c2 -19 1 -36 -2 -40z m-84 -14 c-8 -8
-12 -9 -12 -1 0 6 -3 20 -6 30 -7 17 -6 17 12 1 14 -14 16 -20 6 -30z m43 -36
c-4 -13 -12 -19 -21 -15 -13 5 -13 8 1 23 8 9 13 19 12 22 -2 3 0 2 6 -2 5 -5
6 -17 2 -28z m-1045 -136 c0 -2 -7 -7 -16 -10 -8 -3 -12 -2 -9 4 6 10 25 14
25 6z m130 -46 c0 -5 -7 -10 -16 -10 -8 0 -12 5 -9 10 3 6 10 10 16 10 5 0 9
-4 9 -10z m-210 -116 c0 -8 -5 -12 -10 -9 -6 4 -8 11 -5 16 9 14 15 11 15 -7z
m980 -59 c12 -44 7 -78 -15 -105 -7 -8 -16 -25 -19 -37 -10 -31 -21 -29 -24 3
-1 15 5 32 14 38 12 10 15 27 12 83 -3 81 12 90 32 18z m-1100 15 c0 -5 -2
-10 -4 -10 -3 0 -8 5 -11 10 -3 6 -1 10 4 10 6 0 11 -4 11 -10z m1024 -96 c3
-9 6 -33 6 -54 0 -71 -20 -92 -39 -40 -6 18 -6 30 0 30 5 0 9 18 9 40 0 40 13
53 24 24z m-44 -35 c0 -5 -4 -9 -10 -9 -5 0 -10 7 -10 16 0 8 5 12 10 9 6 -3
10 -10 10 -16z m-1252 -44 c-3 -3 -9 2 -12 12 -6 14 -5 15 5 6 7 -7 10 -15 7
-18z m1245 3 c7 -25 0 -41 -14 -33 -12 8 -12 55 0 55 5 0 11 -10 14 -22z m-24
-38 c0 -3 -11 -18 -25 -35 -22 -26 -26 -28 -37 -14 -18 23 -47 32 -47 14 0
-21 -34 -37 -48 -23 -17 17 -15 41 2 35 7 -3 18 -1 23 4 5 5 20 11 34 14 13 2
31 13 39 23 14 18 17 18 37 3 12 -9 22 -18 22 -21z m-982 -142 c-3 -8 -6 -5
-6 6 -1 11 2 17 5 13 3 -3 4 -12 1 -19z m-3281 -1273 c-9 -7 -16 -17 -16 -24
0 -6 -8 -15 -17 -18 -10 -4 -23 -13 -29 -21 -12 -17 -64 -9 -64 9 0 7 10 9 23
5 23 -5 47 12 91 65 14 17 21 20 24 10 3 -8 -3 -20 -12 -26z m2204 25 c0 -5
-5 -10 -11 -10 -5 0 -7 5 -4 10 3 6 8 10 11 10 2 0 4 -4 4 -10z m64 -54 c-3
-9 -13 -12 -27 -8 -21 6 -21 6 3 13 14 4 26 7 27 8 1 1 0 -5 -3 -13z m241 -36
c-10 -11 -21 -17 -24 -14 -3 3 3 12 13 20 28 20 32 17 11 -6z m-315 -18 c0
-15 -2 -15 -10 -2 -13 20 -13 33 0 25 6 -3 10 -14 10 -23z m358 2 c-7 -7 -26
-16 -43 -20 -28 -6 -29 -6 -10 9 11 8 23 13 26 11 4 -2 10 3 13 12 3 8 11 12
17 8 8 -4 7 -10 -3 -20z m-428 3 c0 -2 -16 -21 -36 -41 -20 -20 -34 -33 -32
-29 23 48 33 63 47 66 9 3 17 5 19 6 1 0 2 -1 2 -2z m15 -47 c-16 -16 -31 -28
-34 -25 -2 3 8 19 24 35 16 16 31 28 34 25 2 -3 -8 -19 -24 -35z m172 14 c-3
-4 -2 -14 3 -24 8 -15 4 -18 -25 -23 -20 -3 -48 -15 -64 -26 -34 -25 -49 -27
-31 -6 7 8 18 15 24 15 6 0 29 16 51 35 22 19 42 35 44 35 2 0 1 -3 -2 -6z
m-144 -46 c-23 -26 -59 -46 -47 -26 16 26 49 56 57 51 5 -3 0 -14 -10 -25z
m-143 -18 c0 -5 -5 -10 -11 -10 -5 0 -7 5 -4 10 3 6 8 10 11 10 2 0 4 -4 4
-10z m64 -54 c-3 -9 -13 -12 -27 -8 -21 6 -21 6 3 13 14 4 26 7 27 8 1 1 0 -5
-3 -13z m-54 -40 c0 -2 -7 -6 -15 -10 -8 -3 -15 -1 -15 4 0 6 7 10 15 10 8 0
15 -2 15 -4z m1070 -157 c0 -5 -4 -9 -10 -9 -5 0 -10 7 -10 16 0 8 5 12 10 9
6 -3 10 -10 10 -16z m-3284 -356 c-10 -10 -19 5 -10 18 6 11 8 11 12 0 2 -7 1
-15 -2 -18z m-32 -5 c-4 -6 1 -17 11 -25 23 -16 14 -17 -20 -1 -29 13 -32 25
-7 31 9 3 18 5 20 6 2 0 0 -4 -4 -11z m66 -28 c-24 -16 -31 -11 -19 11 8 16
14 18 22 10 9 -9 8 -14 -3 -21z m-72 -28 c3 -11 0 -12 -16 -3 -15 8 -21 8 -25
-2 -2 -6 -8 -9 -12 -5 -4 4 -4 12 0 18 9 15 47 9 53 -8z m-448 -29 c22 -16 23
-16 17 1 -6 14 -3 17 9 12 8 -3 31 -6 50 -6 27 0 34 -4 34 -19 0 -10 7 -24 15
-31 8 -7 15 -23 15 -37 0 -29 -29 -43 -42 -20 -5 9 -18 22 -29 28 -19 10 -20
8 -13 -25 6 -34 5 -36 -19 -36 -14 0 -29 5 -32 10 -3 6 -15 10 -25 10 -10 0
-23 6 -27 14 -4 7 -25 19 -45 25 -40 13 -52 41 -18 41 11 0 20 5 20 11 0 6 9
9 20 6 15 -4 20 0 20 14 0 23 18 24 50 2z m235 -4 c-4 -5 -1 -9 4 -9 6 0 11 4
11 10 0 5 7 7 15 4 23 -9 18 -31 -14 -65 -29 -30 -56 -32 -44 -4 3 9 -1 15
-11 15 -23 0 -20 21 5 27 11 3 18 11 15 18 -2 7 -2 16 1 19 9 8 24 -4 18 -15z
m185 3 c0 -13 -12 -22 -22 -16 -10 6 -1 24 13 24 5 0 9 -4 9 -8z m3359 -893
c12 -11 28 -18 36 -16 7 3 16 -1 19 -10 7 -18 -12 -46 -25 -37 -5 3 -6 -2 -3
-10 8 -22 13 -20 46 11 15 15 28 21 28 14 0 -7 -18 -30 -40 -51 -22 -21 -40
-32 -40 -25 0 19 -13 25 -38 19 -22 -6 -19 -36 3 -32 25 5 18 -17 -9 -32 -25
-14 -28 -13 -41 3 -7 10 -17 17 -21 15 -15 -6 -23 53 -11 80 27 59 48 92 60
92 7 0 23 -9 36 -21z m-176 -129 c5 -25 18 -51 28 -58 20 -14 26 -42 10 -42
-6 0 -22 11 -37 25 -15 14 -34 25 -42 25 -12 0 -12 -4 2 -25 20 -31 20 -51 1
-59 -18 -7 -75 3 -75 14 0 3 -14 4 -31 2 -20 -3 -34 0 -40 9 -7 11 -9 9 -10
-6 0 -20 0 -20 -8 0 -4 11 -14 20 -22 21 -8 0 -19 2 -26 2 -18 3 -36 64 -21
74 16 10 58 1 79 -18 26 -23 32 -16 10 12 -23 30 -29 52 -8 37 6 -5 29 -10 50
-10 30 -1 37 2 33 13 -7 18 28 34 69 31 26 -2 30 -6 38 -47z m-1483 -255 c-16
-19 -30 -19 -30 -1 0 8 8 16 18 18 24 6 27 1 12 -17z m-156 -16 c19 -9 29 -9
40 0 24 20 65 -6 72 -48 4 -20 14 -46 22 -59 11 -18 12 -25 2 -37 -18 -22 -43
-19 -36 3 9 26 -41 54 -54 32 -14 -21 -12 -30 5 -30 8 0 15 -2 15 -4 0 -2 3
-11 6 -20 9 -24 -61 -22 -75 2 -7 11 -13 13 -18 6 -10 -14 -44 -15 -60 -2 -7
5 -17 7 -23 3 -5 -3 -10 -2 -10 3 0 11 -47 27 -67 23 -21 -3 -14 31 7 36 11 3
20 12 20 19 0 8 10 14 23 14 12 0 29 5 37 10 13 9 13 11 0 20 -12 8 -11 10 8
10 13 0 22 6 22 15 0 18 29 19 64 4z m-197 -41 c-3 -8 -6 -5 -6 6 -1 11 2 17
5 13 3 -3 4 -12 1 -19z m603 13 c0 -5 -7 -14 -15 -21 -18 -15 -42 1 -31 19 8
13 46 15 46 2z m-87 -64 c-3 -5 -9 -3 -14 4 -4 7 -5 17 -2 22 3 5 9 3 14 -4 4
-7 5 -17 2 -22z m-33 1 c0 -19 -18 -43 -25 -36 -9 9 4 48 16 48 5 0 9 -6 9
-12z"/>
<path d="M7003 6542 c-9 -6 -6 -11 7 -20 21 -13 26 -6 12 15 -4 7 -13 9 -19 5z"/>
<path d="M1720 2293 c0 -4 5 -15 10 -23 8 -13 10 -13 10 2 0 9 -4 20 -10 23
-5 3 -10 3 -10 -2z"/>
<path d="M5472 1335 c-14 -15 -17 -25 -9 -25 12 0 47 34 47 45 0 12 -18 3 -38
-20z"/>
<path d="M5125 1240 c3 -5 8 -10 11 -10 2 0 4 5 4 10 0 6 -5 10 -11 10 -5 0
-7 -4 -4 -10z"/>
<path d="M5350 6980 c-23 -7 -22 -8 10 -8 19 0 44 3 55 8 17 7 15 9 -10 8 -16
0 -41 -4 -55 -8z"/>
<path d="M2332 6632 c1 -19 5 -29 10 -24 5 5 5 19 -1 33 -8 22 -9 22 -9 -9z"/>
<path d="M2216 6576 c-23 -36 -20 -44 5 -12 12 15 19 29 16 32 -2 2 -12 -7
-21 -20z"/>
<path d="M4740 6485 c-19 -19 -31 -35 -28 -35 11 0 72 59 67 64 -3 3 -21 -10
-39 -29z"/>
<path d="M5930 6510 c-8 -5 -12 -12 -9 -15 4 -3 12 1 19 10 14 17 11 19 -10 5z"/>
<path d="M5280 6496 c0 -2 7 -6 15 -10 8 -3 15 -1 15 4 0 6 -7 10 -15 10 -8 0
-15 -2 -15 -4z"/>
<path d="M5081 6460 c-13 -11 -31 -20 -42 -20 -10 0 -21 -4 -24 -10 -3 -5 -21
-10 -40 -10 -36 0 -39 -4 -79 -104 -19 -45 -19 -49 -6 -41 17 10 11 -11 -10
-38 -21 -27 -28 -63 -9 -51 8 4 9 0 4 -15 -4 -12 0 -29 9 -42 l15 -22 5 24 c3
13 7 53 9 89 5 70 22 149 38 165 13 13 11 -6 -6 -55 -8 -23 -14 -68 -14 -99 1
-31 3 -45 6 -31 12 84 14 90 26 84 7 -4 9 -4 5 1 -9 9 14 56 37 75 13 11 15
10 9 -6 -4 -10 -10 -23 -14 -29 -4 -5 -10 -23 -14 -40 -4 -16 -13 -34 -19 -38
-8 -6 -7 -7 3 -4 8 2 28 42 45 90 16 48 33 87 37 87 4 0 22 14 40 30 36 33 27
41 -11 10z"/>
<path d="M6090 6460 c-6 -11 -8 -20 -6 -20 3 0 10 9 16 20 6 11 8 20 6 20 -3
0 -10 -9 -16 -20z"/>
<path d="M5895 6460 c-3 -5 -1 -10 4 -10 6 0 11 5 11 10 0 6 -2 10 -4 10 -3 0
-8 -4 -11 -10z"/>
<path d="M4878 6422 c-28 -29 -48 -64 -48 -82 0 -20 18 -1 24 26 4 14 19 36
34 49 15 13 24 26 21 29 -3 3 -17 -7 -31 -22z"/>
<path d="M4761 6382 c-25 -26 -64 -61 -86 -77 -62 -46 -90 -74 -81 -82 4 -4
16 2 26 15 10 12 22 22 27 22 5 0 16 8 25 18 8 9 27 26 41 37 15 11 38 37 53
58 15 20 33 37 40 37 8 0 14 5 14 10 0 18 -12 10 -59 -38z"/>
<path d="M5110 6415 c-7 -9 -8 -15 -2 -15 5 0 12 7 16 15 3 8 4 15 2 15 -2 0
-9 -7 -16 -15z"/>
<path d="M4722 6403 c-21 -8 -89 -74 -69 -67 9 3 17 9 17 13 0 3 13 12 29 19
16 7 32 19 35 27 3 8 4 15 3 14 -1 0 -8 -3 -15 -6z"/>
<path d="M4760 6330 c-14 -16 -30 -29 -37 -30 -6 0 -18 -8 -25 -18 -7 -11 -23
-24 -35 -31 -28 -14 -125 -103 -119 -108 2 -2 21 7 41 22 21 14 46 25 56 25
10 0 21 5 24 10 3 6 11 10 17 10 6 0 3 -9 -7 -20 -10 -11 -22 -20 -26 -20 -5
0 -22 -14 -38 -31 -18 -19 -35 -28 -42 -23 -7 4 -9 3 -6 -3 6 -9 -12 -23 -28
-22 -3 0 -13 -7 -21 -16 -9 -8 -21 -15 -27 -15 -14 0 -39 -27 -56 -59 -16 -29
-14 -32 15 -21 33 13 33 13 27 -10 -4 -14 0 -20 11 -20 14 0 15 -4 6 -20 -6
-11 -16 -20 -23 -20 -7 0 -22 -7 -33 -16 -10 -8 -13 -12 -5 -8 9 5 12 2 7 -7
-3 -8 -9 -22 -12 -31 -4 -10 -11 -18 -17 -18 -6 0 -8 -48 -5 -140 5 -132 -2
-172 -16 -95 -4 19 -12 35 -19 35 -9 0 -9 2 0 8 8 5 9 28 3 81 -8 76 -2 105
29 146 9 11 1 7 -17 -10 -18 -16 -35 -40 -38 -52 -4 -13 -10 -20 -15 -17 -5 3
-9 -4 -9 -15 0 -10 6 -21 13 -24 9 -4 9 -7 0 -18 -9 -9 -10 -16 -1 -26 8 -10
8 -24 -1 -52 -13 -44 -15 -98 -3 -104 4 -3 15 -1 25 2 17 6 17 8 3 20 -9 7
-16 17 -16 22 0 18 16 8 39 -26 19 -29 26 -33 38 -23 8 6 12 20 10 30 -3 10
-1 18 4 18 5 0 9 -6 9 -14 0 -8 3 -16 8 -18 4 -1 17 -17 30 -35 25 -37 29 -85
7 -103 -16 -13 -19 -6 -16 32 2 20 -18 98 -25 98 -3 0 -14 -9 -26 -19 -16 -16
-21 -32 -20 -75 0 -30 6 -65 14 -78 13 -22 13 -22 16 15 l3 38 40 -40 c21 -23
46 -41 54 -41 24 0 65 -31 65 -49 0 -9 9 -27 20 -41 11 -14 20 -31 20 -37 0
-18 20 -16 20 2 0 8 4 15 8 15 11 0 2 -72 -10 -87 -14 -17 0 -51 23 -58 16 -5
18 -9 8 -21 -6 -8 -9 -18 -5 -21 4 -4 11 -1 16 7 7 11 11 11 24 1 17 -15 22
-36 6 -26 -5 3 -28 1 -50 -6 -30 -9 -39 -16 -36 -31 1 -11 7 -23 12 -26 6 -4
14 -16 19 -27 7 -18 9 -18 12 -2 5 18 23 24 23 7 0 -22 17 -8 30 25 8 19 17
35 21 35 3 0 9 19 12 43 4 23 9 57 13 75 4 22 3 32 -5 32 -7 0 -10 -4 -6 -9 8
-15 -13 -24 -68 -28 -44 -3 -49 -2 -38 11 7 8 21 18 32 21 10 4 19 13 19 21 0
8 4 14 9 14 22 0 72 54 68 72 -3 10 -1 21 5 24 6 4 17 21 25 38 21 45 38 73
55 93 26 30 58 113 65 170 3 30 12 60 19 67 8 9 9 17 3 23 -6 6 -4 20 6 39 8
16 15 38 15 49 0 17 2 17 10 5 8 -12 10 -12 10 5 1 11 2 41 3 67 2 36 -1 44
-10 36 -18 -15 -16 -5 8 47 13 27 18 52 14 65 -7 22 -7 22 -19 -2 -22 -42 -45
-118 -40 -132 3 -7 -4 -20 -14 -29 -18 -17 -18 -15 -10 40 5 32 13 72 18 90 4
18 4 33 -1 35 -13 5 -12 46 5 118 31 132 31 130 7 88 -13 -24 -21 -56 -21 -85
0 -49 -8 -55 -12 -9 -2 24 -4 25 -15 11 -11 -16 -8 -43 7 -55 3 -3 -7 -27 -22
-55 -24 -44 -42 -50 -19 -7 20 40 21 72 4 89 -10 10 -23 29 -29 43 l-11 25
-17 -33 c-22 -43 -30 -40 -34 10 -1 23 -7 47 -13 54 -5 6 -6 19 -3 29 6 14 3
16 -16 10 -19 -6 -17 -1 14 29 22 22 36 46 36 61 0 35 -8 31 -26 -14 -16 -42
-83 -94 -104 -81 -9 5 -9 9 -1 14 6 4 11 4 11 1 0 -10 65 65 84 96 22 37 17
37 -14 -1z m-35 -129 c-3 -6 -11 -11 -17 -11 -6 0 -6 6 2 15 14 17 26 13 15
-4z m17 -33 c-7 -7 -12 -8 -12 -2 0 14 12 26 19 19 2 -3 -1 -11 -7 -17z m-112
-81 c0 -14 6 -24 15 -24 8 0 15 6 15 13 0 7 8 18 18 23 16 9 18 3 19 -72 2
-124 2 -127 14 -98 5 13 8 38 6 55 -2 17 -2 22 1 11 5 -18 6 -18 13 5 l7 25 1
-26 c1 -15 -6 -45 -14 -68 -8 -22 -12 -41 -9 -41 3 0 2 -5 -2 -11 -4 -8 -9 -7
-16 2 -7 10 -8 8 -3 -8 8 -29 -34 -130 -79 -189 -48 -62 -45 -50 8 44 24 42
46 95 50 117 l5 40 -17 -45 c-23 -62 -50 -108 -78 -139 -32 -34 -31 -18 2 24
14 19 24 40 21 47 -2 8 -12 0 -23 -19 -11 -18 -23 -33 -28 -33 -5 0 -18 -8
-29 -17 -19 -17 -19 -17 -12 7 4 13 14 30 21 38 8 7 14 19 14 25 0 7 -4 6 -10
-3 -5 -8 -12 -11 -16 -7 -4 3 -1 13 6 22 7 9 10 18 7 21 -3 3 -15 -8 -28 -25
-13 -17 -27 -31 -32 -31 -6 0 -16 -8 -23 -17 -11 -16 -13 -16 -19 10 -4 15 -5
31 -1 34 3 3 1 12 -5 19 -7 9 -5 16 9 26 10 7 21 21 25 31 4 10 11 16 16 12 5
-3 13 0 17 6 4 8 3 9 -4 5 -7 -4 -12 -5 -12 -3 0 9 52 97 61 102 5 4 9 12 9
19 0 16 62 115 73 115 4 1 7 -9 7 -22z m100 -17 c0 -5 -4 -10 -10 -10 -5 0
-10 5 -10 10 0 6 5 10 10 10 6 0 10 -4 10 -10z m-8 -245 c-6 -49 -18 -52 -14
-4 2 21 7 39 11 39 4 0 5 -16 3 -35z m-51 -136 c-5 -13 -10 -19 -10 -12 -1 15
10 45 15 40 3 -2 0 -15 -5 -28z m19 -66 c-11 -17 -11 -17 -6 0 3 10 6 24 7 30
0 9 2 9 5 0 3 -7 0 -20 -6 -30z m-253 -155 c-2 -13 -4 -5 -4 17 -1 22 1 32 4
23 2 -10 2 -28 0 -40z m133 -42 c0 -3 -4 -8 -10 -11 -5 -3 -10 -1 -10 4 0 6 5
11 10 11 6 0 10 -2 10 -4z m0 -36 c0 -5 -2 -10 -4 -10 -3 0 -8 5 -11 10 -3 6
-1 10 4 10 6 0 11 -4 11 -10z m37 -7 c-4 -3 -2 -12 5 -20 8 -11 7 -12 -6 -7
-9 3 -16 9 -16 13 0 9 11 21 18 21 3 0 2 -3 -1 -7z m92 -155 c-8 -14 -14 -18
-17 -10 -4 13 17 46 25 38 3 -2 -1 -15 -8 -28z m1 -228 c0 -5 -6 -10 -14 -10
-8 0 -18 5 -21 10 -3 6 3 10 14 10 12 0 21 -4 21 -10z"/>
<path d="M4671 6024 c0 -11 3 -14 6 -6 3 7 2 16 -1 19 -3 4 -6 -2 -5 -13z"/>
<path d="M4450 5771 c-13 -25 -13 -34 0 -26 16 10 32 45 21 45 -6 0 -15 -9
-21 -19z"/>
<path d="M5803 6298 c-38 -72 -38 -71 -15 -57 12 7 23 20 26 29 2 8 9 30 14
48 15 46 6 40 -25 -20z"/>
<path d="M5061 6316 c-13 -33 -9 -43 8 -22 7 8 11 23 8 33 -3 14 -6 12 -16
-11z"/>
<path d="M1943 6235 c-19 -21 -16 -27 7 -15 11 6 20 15 20 20 0 14 -13 12 -27
-5z"/>
<path d="M5042 6195 c0 -16 2 -22 5 -12 2 9 2 23 0 30 -3 6 -5 -1 -5 -18z"/>
<path d="M5072 6165 c-15 -33 -15 -35 3 -35 10 0 15 10 15 30 0 37 -3 37 -18
5z"/>
<path d="M4500 6110 c-13 -11 -19 -20 -14 -20 14 1 48 29 42 35 -2 3 -15 -4
-28 -15z"/>
<path d="M4972 6103 c-1 -17 -5 -40 -8 -50 -5 -17 -5 -17 6 0 6 9 9 32 7 50
l-4 32 -1 -32z"/>
<path d="M5060 6109 c0 -5 5 -7 10 -4 6 3 10 8 10 11 0 2 -4 4 -10 4 -5 0 -10
-5 -10 -11z"/>
<path d="M6673 5959 c-18 -12 -33 -25 -33 -31 0 -10 55 26 65 42 9 14 4 12
-32 -11z"/>
<path d="M5062 5935 c0 -16 2 -22 5 -12 2 9 2 23 0 30 -3 6 -5 -1 -5 -18z"/>
<path d="M5157 5868 c-2 -24 -8 -52 -12 -63 l-7 -20 14 20 c16 22 31 105 18
105 -4 0 -10 -19 -13 -42z"/>
<path d="M5040 5859 c0 -5 -5 -7 -12 -3 -6 4 -8 3 -5 -3 3 -5 3 -33 -2 -61 -5
-30 -4 -55 1 -60 6 -6 6 -18 -1 -31 -7 -12 -8 -21 -3 -21 18 0 33 48 36 118 2
39 -1 72 -5 72 -5 0 -9 -5 -9 -11z"/>
<path d="M5256 5842 c-4 -7 -2 -12 3 -12 7 0 11 -26 12 -62 0 -45 3 -57 9 -43
12 29 11 65 -4 100 -8 19 -15 25 -20 17z"/>
<path d="M5321 5680 l2 -85 9 73 c7 53 7 77 -1 85 -8 8 -11 -12 -10 -73z"/>
<path d="M6016 5725 c-9 -14 -13 -25 -8 -25 5 0 14 11 20 25 6 14 10 25 8 25
-2 0 -11 -11 -20 -25z"/>
<path d="M6030 5681 c0 -6 -23 -33 -50 -58 -28 -25 -48 -49 -45 -52 4 -3 9 -1
13 5 4 5 22 20 40 33 32 22 59 68 47 79 -3 3 -5 0 -5 -7z"/>
<path d="M4967 5596 c-5 -22 -19 -61 -32 -88 -30 -63 -15 -53 19 13 17 32 26
63 24 82 l-3 32 -8 -39z"/>
<path d="M5920 5609 c0 -5 5 -7 10 -4 6 3 10 8 10 11 0 2 -4 4 -10 4 -5 0 -10
-5 -10 -11z"/>
<path d="M6546 5583 c-6 -14 -5 -15 5 -6 7 7 10 15 7 18 -3 3 -9 -2 -12 -12z"/>
<path d="M5363 5520 c0 -25 2 -35 4 -22 2 12 2 32 0 45 -2 12 -4 2 -4 -23z"/>
<path d="M5713 5490 c0 -25 2 -35 4 -22 2 12 2 32 0 45 -2 12 -4 2 -4 -23z"/>
<path d="M6672 5490 c0 -19 2 -27 5 -17 2 9 2 25 0 35 -3 9 -5 1 -5 -18z"/>
<path d="M6526 5470 c-5 -19 -13 -42 -20 -52 -8 -13 -7 -21 2 -30 9 -9 12 -7
12 11 0 12 5 31 11 42 5 11 9 30 7 42 -3 18 -6 15 -12 -13z"/>
<path d="M3970 5435 c-60 -19 -133 -55 -127 -62 8 -7 89 27 99 41 4 6 10 7 14
4 5 -6 -44 -42 -70 -51 -5 -2 -9 -13 -10 -25 0 -11 -10 -28 -21 -37 -19 -16
-19 -16 10 -10 l30 5 -35 -30 c-19 -17 -26 -27 -15 -22 11 5 25 7 32 5 6 -2
25 3 42 11 51 27 58 18 11 -14 l-45 -29 38 6 c42 6 46 -5 15 -41 -10 -11 -18
-23 -18 -28 0 -4 8 -4 18 -1 15 6 15 5 3 -10 -17 -21 -12 -21 25 -2 16 8 23
15 17 15 -7 0 -13 5 -13 11 0 5 4 8 8 5 11 -6 36 90 28 103 -9 14 4 62 15 55
5 -3 9 3 9 13 0 11 6 25 13 33 10 12 9 12 -3 3 -23 -16 -70 -25 -70 -13 0 5
14 23 30 39 35 33 24 44 -30 26z m0 -119 c0 -2 -7 -7 -16 -10 -8 -3 -12 -2 -9
4 6 10 25 14 25 6z"/>
<path d="M5285 5403 c-8 -32 -16 -99 -19 -161 -2 -33 0 -40 10 -30 7 7 15 51
18 98 3 47 8 94 12 103 3 9 2 17 -4 17 -5 0 -13 -12 -17 -27z"/>
<path d="M7130 5381 c0 -11 4 -22 9 -25 4 -3 6 6 3 19 -5 30 -12 33 -12 6z"/>
<path d="M5330 5356 c0 -37 14 -76 27 -76 11 0 13 6 8 23 -3 12 -9 32 -12 45
-6 24 -23 31 -23 8z"/>
<path d="M5185 5310 c-16 -35 -15 -64 1 -47 7 6 24 80 20 84 -2 2 -11 -15 -21
-37z"/>
<path d="M5226 5331 c-13 -20 -18 -119 -7 -125 6 -4 11 0 12 11 2 35 8 78 14
101 5 21 -8 31 -19 13z"/>
<path d="M4930 5306 c0 -7 -7 -27 -15 -42 -8 -16 -17 -45 -21 -64 -3 -19 -9
-45 -14 -57 -6 -15 -5 -25 6 -33 15 -14 18 -8 15 40 -1 14 3 39 10 55 25 63
38 115 29 115 -6 0 -10 -6 -10 -14z"/>
<path d="M4821 5287 c-13 -21 -12 -21 5 -5 10 10 16 20 13 22 -3 3 -11 -5 -18
-17z"/>
<path d="M5120 5295 c0 -8 -4 -15 -10 -15 -5 0 -10 -9 -10 -20 0 -25 -17 -26
-23 -2 -4 14 -5 14 -5 -3 -1 -11 7 -36 18 -55 18 -34 19 -34 20 -9 0 14 3 29
7 32 8 9 16 87 9 87 -4 0 -6 -7 -6 -15z"/>
<path d="M5048 5265 c-6 -30 -3 -43 8 -33 3 4 4 19 2 35 l-3 28 -7 -30z"/>
<path d="M5404 5271 c20 -22 26 -25 26 -13 0 4 -10 13 -22 21 -23 14 -23 14
-4 -8z"/>
<path d="M4963 5235 c-6 -20 -7 -35 -2 -35 5 0 9 -8 9 -17 0 -10 5 -25 11 -33
8 -11 9 -9 3 10 -4 14 -7 44 -6 68 0 23 -1 42 -2 42 -2 0 -7 -16 -13 -35z"/>
<path d="M5370 5262 c0 -12 19 -26 26 -19 2 2 -2 10 -11 17 -9 8 -15 8 -15 2z"/>
<path d="M5916 5255 c-3 -9 -6 -24 -5 -33 0 -9 5 -4 10 12 9 32 6 48 -5 21z"/>
<path d="M5190 5245 c-10 -53 -10 -60 1 -42 6 10 8 25 6 35 -3 9 -6 13 -7 7z"/>
<path d="M4791 5209 c-9 -26 -9 -29 3 -20 16 14 28 51 16 51 -4 0 -13 -14 -19
-31z"/>
<path d="M5000 5230 c0 -5 5 -10 11 -10 5 0 7 5 4 10 -3 6 -8 10 -11 10 -2 0
-4 -4 -4 -10z"/>
<path d="M3730 5198 c-25 -11 -40 -22 -33 -25 6 -2 25 3 42 11 16 9 36 16 43
16 7 -1 0 -8 -17 -17 -34 -18 -46 -33 -38 -46 3 -6 -5 -18 -18 -29 l-24 -20
30 6 30 6 -35 -31 c-19 -17 -29 -28 -22 -24 8 4 26 8 40 10 15 1 36 5 47 9 13
5 7 -4 -15 -24 -19 -17 -27 -28 -18 -25 20 8 41 -25 32 -49 -5 -13 -2 -15 12
-9 17 6 17 5 5 -10 -9 -11 -10 -17 -2 -17 6 0 11 -6 11 -14 0 -8 -8 -13 -17
-11 -10 2 -21 4 -25 4 -5 1 -7 7 -5 14 1 6 -6 11 -15 9 -10 -2 -18 2 -18 8 0
6 -4 8 -10 5 -5 -3 -10 0 -10 7 -1 35 -16 39 -66 17 -27 -12 -44 -23 -37 -26
6 -2 25 3 42 11 16 9 36 16 43 16 7 -1 0 -8 -17 -17 -34 -18 -46 -33 -38 -46
3 -6 -5 -18 -18 -29 l-24 -20 29 7 c26 5 28 4 17 -9 -8 -9 -22 -16 -32 -16
-18 0 -23 -10 -20 -38 1 -7 -5 -15 -14 -18 -8 -3 -15 -11 -15 -16 0 -6 7 -7
16 -4 15 6 15 4 3 -11 -12 -14 -12 -16 1 -11 50 20 53 18 20 -12 l-35 -32 30
6 30 6 -35 -31 c-19 -17 -29 -28 -22 -24 18 9 72 13 72 5 0 -3 -5 -11 -12 -18
-9 -9 -8 -12 7 -13 20 0 20 0 1 -8 -19 -7 -19 -8 2 -13 12 -4 20 -3 17 2 -3 4
2 14 11 21 14 11 18 10 30 -6 11 -15 11 -21 1 -27 -6 -4 4 -5 23 -2 l35 6 -25
-21 c-14 -12 -18 -19 -9 -16 10 4 22 -3 33 -20 9 -14 22 -23 28 -19 7 5 9 0 6
-14 -4 -15 -3 -20 5 -15 7 5 30 8 52 8 l40 0 1 85 c0 104 -2 113 -27 99 -11
-5 -19 -6 -19 0 0 5 11 12 24 15 23 6 24 10 23 71 -1 48 -5 64 -14 60 -7 -2
-13 0 -13 5 0 6 -8 10 -17 10 -13 0 -14 3 -5 12 17 17 15 28 -4 28 -11 0 -15
6 -11 20 3 11 1 20 -5 20 -5 0 -2 7 6 16 9 8 16 24 16 35 0 15 6 19 23 17 12
-2 27 -7 34 -11 14 -9 21 28 19 98 -1 42 -4 50 -18 47 -10 -2 -18 1 -18 6 0 6
-11 13 -25 16 -14 4 -25 11 -25 17 0 6 -4 8 -9 5 -5 -3 -12 5 -15 19 -8 29 -8
30 -66 3z m90 -82 c0 -2 -7 -7 -16 -10 -8 -3 -12 -2 -9 4 6 10 25 14 25 6z
m50 -30 c0 -2 -7 -7 -16 -10 -8 -3 -12 -2 -9 4 6 10 25 14 25 6z m-15 -50
c-23 -15 -65 -30 -65 -22 0 8 53 35 70 36 10 0 9 -4 -5 -14z m-85 -170 c0 -2
-7 -7 -16 -10 -8 -3 -12 -2 -9 4 6 10 25 14 25 6z m40 -20 c0 -2 -7 -7 -16
-10 -8 -3 -12 -2 -9 4 6 10 25 14 25 6z m-125 -16 c-3 -5 -16 -10 -28 -9 -21
0 -21 1 -2 9 28 12 37 12 30 0z m155 -4 c0 -2 -7 -7 -16 -10 -8 -3 -12 -2 -9
4 6 10 25 14 25 6z m-90 -31 c-9 -11 -16 -12 -25 -5 -6 5 -16 7 -21 3 -5 -4
-4 -3 1 4 10 11 46 22 54 16 2 -1 -2 -9 -9 -18z m-80 -9 c0 -2 -7 -7 -16 -10
-8 -3 -12 -2 -9 4 6 10 25 14 25 6z m130 -26 l-45 -30 35 6 35 5 -30 -26 -30
-27 30 7 30 6 -35 -33 c-29 -27 -32 -33 -17 -36 9 -2 15 -8 12 -13 -4 -5 -14
-5 -26 1 -13 8 -25 7 -39 0 -14 -7 -20 -7 -20 0 0 5 7 10 15 10 8 0 15 4 15 8
0 12 -47 51 -54 45 -3 -4 -6 1 -6 11 0 14 -4 15 -20 6 -11 -6 -20 -7 -20 -1 0
9 47 26 63 23 4 -1 10 11 13 27 6 26 9 28 29 19 17 -7 30 -6 51 6 51 27 61 17
14 -14z m30 -135 c-7 -9 -15 -13 -19 -10 -3 3 1 10 9 15 21 14 24 12 10 -5z
m-5 -39 c-23 -15 -65 -30 -65 -22 0 8 53 35 70 36 10 0 9 -4 -5 -14z m-5 -40
c0 -3 -4 -8 -10 -11 -5 -3 -10 -1 -10 4 0 6 5 11 10 11 6 0 10 -2 10 -4z"/>
<path d="M6243 5212 c-7 -4 -9 -13 -4 -21 6 -10 10 -9 15 5 8 20 4 25 -11 16z"/>
<path d="M5130 5201 c0 -6 4 -13 10 -16 6 -3 7 1 4 9 -7 18 -14 21 -14 7z"/>
<path d="M5420 5195 c7 -9 15 -13 17 -11 7 7 -7 26 -19 26 -6 0 -6 -6 2 -15z"/>
<path d="M5024 5160 c3 -25 5 -49 5 -53 1 -5 5 -5 11 -2 10 6 3 61 -12 85 -6
10 -7 -1 -4 -30z"/>
<path d="M4925 5171 c-12 -37 -15 -65 -6 -55 10 10 25 74 17 74 -2 0 -7 -9
-11 -19z"/>
<path d="M6815 5169 c-4 -6 -5 -12 -2 -15 2 -3 7 2 10 11 7 17 1 20 -8 4z"/>
<path d="M5080 5136 c0 -13 7 -27 16 -30 12 -5 15 -2 10 10 -3 8 -6 22 -6 30
0 8 -4 14 -10 14 -5 0 -10 -11 -10 -24z"/>
<path d="M6749 5142 c-9 -9 -19 -28 -22 -42 -6 -24 -5 -23 18 5 13 17 24 36
25 43 0 15 -1 15 -21 -6z"/>
<path d="M5210 5111 c0 -6 4 -13 10 -16 6 -3 7 1 4 9 -7 18 -14 21 -14 7z"/>
<path d="M4953 5050 c0 -25 2 -35 4 -22 2 12 2 32 0 45 -2 12 -4 2 -4 -23z"/>
<path d="M5080 5025 c7 -9 15 -13 17 -11 7 7 -7 26 -19 26 -6 0 -6 -6 2 -15z"/>
<path d="M5350 5016 c0 -10 101 -78 107 -72 4 3 4 7 2 9 -2 1 -25 17 -51 35
-44 30 -58 37 -58 28z"/>
<path d="M5560 5003 c0 -4 5 -15 10 -23 8 -13 10 -13 10 2 0 9 -4 20 -10 23
-5 3 -10 3 -10 -2z"/>
<path d="M4875 4931 c-3 -17 -2 -38 3 -48 5 -10 7 -23 5 -29 -2 -6 2 -14 9
-16 8 -4 14 3 14 18 1 14 -2 21 -9 17 -6 -4 -8 10 -5 41 6 51 -7 63 -17 17z"/>
<path d="M4750 4934 c0 -11 -6 -15 -20 -11 -16 4 -21 -3 -30 -47 -16 -71 3
-130 43 -134 20 -3 27 -9 27 -25 1 -30 19 -52 55 -64 17 -5 32 -18 35 -31 7
-32 108 -132 132 -132 12 0 33 -13 48 -29 15 -15 42 -33 60 -40 29 -10 36 -9
55 9 20 19 22 19 38 3 9 -10 17 -12 17 -6 0 6 -7 19 -16 27 -8 9 -13 20 -9 26
3 6 -1 7 -10 4 -11 -5 -14 -2 -9 10 4 11 1 16 -10 16 -9 0 -16 8 -16 18 0 9
-5 24 -11 32 -8 12 -9 10 -4 -8 4 -14 0 -38 -11 -60 -16 -33 -19 -34 -22 -14
-2 16 -10 22 -28 22 -13 0 -24 4 -24 8 0 12 44 10 52 -2 13 -19 21 3 10 26 -6
13 -11 17 -11 11 -1 -7 -7 -13 -15 -13 -15 0 -26 30 -26 73 0 15 -4 27 -9 27
-5 0 -12 -12 -14 -27 l-4 -28 -2 28 c0 18 -5 26 -12 21 -7 -4 -10 -1 -7 7 3 8
13 13 22 13 21 -2 21 -1 -13 35 -16 17 -32 45 -36 61 -7 32 -25 51 -25 27 0
-8 7 -31 15 -50 14 -34 14 -37 -5 -47 -23 -12 -63 7 -56 27 3 7 -1 10 -10 6
-10 -4 -12 0 -8 11 4 11 1 16 -10 16 -9 0 -16 8 -16 18 0 9 -5 24 -11 32 -8
12 -9 10 -4 -8 4 -12 1 -36 -7 -52 -14 -32 -28 -40 -28 -15 0 8 -8 15 -17 15
-14 0 -14 3 -5 12 10 10 15 10 22 -2 15 -23 24 -2 12 25 -7 14 -12 40 -12 57
0 35 -7 34 -14 -3 -2 -13 -5 -26 -7 -29 -3 -7 -21 111 -21 143 -1 28 -18 39
-18 11z m-15 -54 c-4 -12 -9 -19 -12 -17 -3 3 -2 15 2 27 4 12 9 19 12 17 3
-3 2 -15 -2 -27z m22 -62 c-3 -7 -5 -2 -5 12 0 14 2 19 5 13 2 -7 2 -19 0 -25z
m-30 -10 c-3 -7 -5 -2 -5 12 0 14 2 19 5 13 2 -7 2 -19 0 -25z m78 -48 c3 -5
1 -10 -4 -10 -6 0 -11 5 -11 10 0 6 2 10 4 10 3 0 8 -4 11 -10z m185 -100 c0
-5 -4 -10 -10 -10 -5 0 -10 5 -10 10 0 6 5 10 10 10 6 0 10 -4 10 -10z m-41
-62 c17 -17 34 -28 38 -24 4 4 1 11 -7 16 -11 7 -10 9 6 8 19 -2 20 -5 11 -25
-11 -25 -11 -25 -70 30 -16 15 -25 27 -19 27 5 0 24 -14 41 -32z"/>
<path d="M4843 4860 c0 -25 2 -35 4 -22 2 12 2 32 0 45 -2 12 -4 2 -4 -23z"/>
<path d="M4940 4834 c0 -21 4 -33 10 -29 6 3 10 19 10 36 0 16 -4 29 -10 29
-5 0 -10 -16 -10 -36z"/>
<path d="M5002 4820 c0 -14 2 -19 5 -12 2 6 2 18 0 25 -3 6 -5 1 -5 -13z"/>
<path d="M5470 4820 c0 -11 4 -20 9 -20 5 0 7 9 4 20 -3 11 -7 20 -9 20 -2 0
-4 -9 -4 -20z"/>
<path d="M4900 4789 c0 -19 4 -41 9 -48 6 -10 8 1 4 30 -7 55 -13 63 -13 18z"/>
<path d="M5096 4754 c-6 -30 -3 -41 17 -63 36 -38 57 -85 57 -127 0 -55 8 -37
11 24 2 29 7 52 13 52 6 0 -3 7 -19 15 -37 19 -54 44 -60 91 -6 50 -11 52 -19
8z"/>
<path d="M5245 4770 c7 -11 45 -33 45 -26 0 2 -7 12 -16 20 -17 18 -39 22 -29
6z"/>
<path d="M5308 4723 c7 -3 16 -2 19 1 4 3 -2 6 -13 5 -11 0 -14 -3 -6 -6z"/>
<path d="M4930 4690 c0 -5 5 -10 11 -10 5 0 7 5 4 10 -3 6 -8 10 -11 10 -2 0
-4 -4 -4 -10z"/>
<path d="M5066 4652 c-2 -4 0 -14 6 -22 8 -12 9 -12 5 2 -3 9 -1 19 6 22 9 3
9 5 0 5 -6 1 -14 -3 -17 -7z"/>
<path d="M5111 4604 c0 -11 3 -14 6 -6 3 7 2 16 -1 19 -3 4 -6 -2 -5 -13z"/>
<path d="M5067 4591 c-4 -17 -3 -21 5 -13 5 5 8 16 6 23 -3 8 -7 3 -11 -10z"/>
<path d="M5750 4495 c0 -8 5 -15 10 -15 6 0 10 7 10 15 0 8 -4 15 -10 15 -5 0
-10 -7 -10 -15z"/>
<path d="M5450 4484 c0 -8 5 -12 10 -9 6 4 8 11 5 16 -9 14 -15 11 -15 -7z"/>
<path d="M5473 4480 c-2 -24 12 -27 21 -4 8 22 8 24 -7 24 -7 0 -13 -9 -14
-20z"/>
<path d="M2770 4459 c0 -14 -4 -29 -10 -35 -5 -5 -12 -43 -15 -84 -9 -110 -13
-138 -20 -150 -9 -15 -25 -2 -19 15 3 7 1 22 -4 31 -9 16 -10 16 -16 -3 -4
-12 -6 -25 -5 -29 1 -5 -3 -22 -9 -37 -14 -34 -6 -74 20 -102 19 -20 19 -20
-7 -23 -29 -4 -29 -25 1 -31 10 -2 31 -12 46 -22 36 -26 47 -24 62 11 7 17 15
27 19 23 4 -3 7 6 7 20 0 18 -5 27 -16 27 -8 0 -12 5 -9 10 4 6 1 17 -5 25 -7
8 -9 15 -6 15 4 0 3 8 -2 17 -7 11 -5 30 4 57 11 29 11 41 3 47 -8 5 -6 20 7
55 27 70 51 114 58 107 3 -4 6 6 6 20 0 26 -11 33 -49 27 -8 -1 -21 6 -28 16
-12 16 -13 16 -13 -7z"/>
<path d="M5150 4391 c0 -24 26 -35 34 -15 10 26 7 34 -14 34 -13 0 -20 -7 -20
-19z"/>
<path d="M2840 4290 c0 -5 4 -10 9 -10 6 0 13 5 16 10 3 6 -1 10 -9 10 -9 0
-16 -4 -16 -10z"/>
<path d="M5959 4235 c-1 -16 0 -38 1 -49 1 -11 -3 -15 -9 -12 -6 4 -11 3 -11
-3 0 -5 -12 -11 -27 -13 -22 -2 -28 -8 -27 -25 0 -13 -4 -23 -10 -23 -6 0 -5
-4 3 -9 12 -7 12 -15 4 -33 -7 -18 -6 -32 8 -63 10 -22 19 -49 19 -59 0 -20 0
-20 15 0 9 12 14 14 15 5 0 -7 6 -11 14 -8 27 11 25 -6 -5 -44 -31 -39 -28
-51 11 -44 29 6 27 2 31 65 4 54 4 55 -28 64 -18 6 -34 15 -37 21 -7 20 6 65
19 65 8 0 17 9 20 20 3 11 12 20 19 20 8 0 19 7 26 15 11 13 9 20 -11 41 l-24
26 37 31 38 32 -35 1 c-19 0 -35 -4 -35 -10 0 -6 -5 -4 -10 4 -8 12 -10 8 -11
-15z"/>
<path d="M2910 4192 c0 -15 -9 -21 -34 -26 -37 -7 -43 -17 -45 -77 -1 -29 3
-38 20 -42 17 -5 23 1 35 31 8 20 24 53 34 73 18 32 18 38 5 49 -12 10 -15 9
-15 -8z"/>
<path d="M5605 4170 c3 -5 10 -10 16 -10 5 0 9 5 9 10 0 6 -7 10 -16 10 -8 0
-12 -4 -9 -10z"/>
<path d="M5845 3918 c-30 -16 -30 -17 -12 -31 16 -11 16 -14 2 -35 -9 -12 -23
-22 -31 -22 -19 0 -15 -41 5 -48 8 -3 11 0 8 5 -4 6 -1 18 6 27 10 13 18 15
37 8 33 -12 50 -5 50 22 0 12 6 28 13 35 8 9 8 12 0 7 -6 -3 -19 1 -27 10 -14
14 -19 14 -34 2 -15 -12 -16 -11 -3 5 18 22 12 29 -14 15z"/>
<path d="M5555 3890 c-3 -6 1 -7 9 -4 18 7 21 14 7 14 -6 0 -13 -4 -16 -10z"/>
<path d="M6075 3860 c10 -11 20 -20 22 -20 2 0 -1 9 -7 20 -6 11 -16 20 -22
20 -6 0 -3 -9 7 -20z"/>
<path d="M5490 3642 c0 -5 7 -13 16 -16 10 -4 14 -1 12 6 -5 15 -28 23 -28 10z"/>
<path d="M4345 3630 c-7 -12 2 -12 30 0 19 8 19 9 -2 9 -12 1 -25 -3 -28 -9z"/>
<path d="M5440 3390 c0 -5 5 -10 10 -10 6 0 10 5 10 10 0 6 -4 10 -10 10 -5 0
-10 -4 -10 -10z"/>
<path d="M5135 3330 c-3 -6 1 -7 9 -4 18 7 21 14 7 14 -6 0 -13 -4 -16 -10z"/>
<path d="M5590 3275 c0 -18 19 -40 26 -32 4 4 0 15 -9 24 -9 10 -17 13 -17 8z"/>
<path d="M3802 3182 c6 -78 22 -123 63 -169 25 -29 32 -29 61 3 31 33 30 39
-2 18 -28 -19 -42 -11 -46 26 -2 14 -10 30 -18 37 -13 10 -12 14 5 27 19 14
19 15 1 16 -15 0 -17 6 -14 36 3 29 2 33 -7 20 -19 -25 -25 -19 -25 24 0 23
-5 40 -11 40 -8 0 -10 -23 -7 -78z"/>
<path d="M5076 3234 c-11 -7 -16 -17 -13 -21 4 -4 15 1 24 10 22 21 14 30 -11
11z"/>
<path d="M2313 3228 c-27 -13 -31 -34 -5 -23 9 4 25 10 34 12 10 3 15 9 12 14
-6 11 -13 11 -41 -3z"/>
<path d="M4416 3222 c-7 -13 6 -28 42 -46 36 -18 36 -18 22 19 -7 18 -15 25
-25 21 -8 -3 -15 -1 -15 4 0 12 -17 13 -24 2z"/>
<path d="M2249 3133 c-13 -16 -12 -17 4 -4 9 7 17 15 17 17 0 8 -8 3 -21 -13z"/>
<path d="M2190 3070 c-14 -11 -31 -20 -37 -20 -7 0 -13 -5 -13 -11 0 -8 -14
-10 -42 -5 l-43 6 28 -25 c15 -14 39 -25 52 -25 23 0 75 38 75 55 0 5 7 17 17
27 23 25 -4 24 -37 -2z"/>
<path d="M4006 2737 c4 -12 10 -24 14 -27 4 -3 11 -20 15 -37 3 -18 11 -33 16
-33 13 0 11 28 -2 32 -6 2 -11 20 -12 40 -1 27 -6 38 -19 42 -15 3 -18 0 -12
-17z"/>
<path d="M2088 2423 c7 -3 16 -2 19 1 4 3 -2 6 -13 5 -11 0 -14 -3 -6 -6z"/>
<path d="M4110 1229 c0 -5 5 -7 10 -4 6 3 10 8 10 11 0 2 -4 4 -10 4 -5 0 -10
-5 -10 -11z"/>
<path d="M4022 1054 c-11 -12 -8 -14 19 -14 18 0 30 1 28 3 -2 1 -11 8 -19 14
-11 8 -18 8 -28 -3z"/>
<path d="M6232 1016 c7 -8 15 -12 17 -11 5 6 -10 25 -20 25 -5 0 -4 -6 3 -14z"/>
<path d="M3940 990 c0 -5 5 -10 11 -10 5 0 7 5 4 10 -3 6 -8 10 -11 10 -2 0
-4 -4 -4 -10z"/>
<path d="M5945 980 c-18 -20 -18 -20 13 -9 18 6 29 15 26 20 -8 14 -19 11 -39
-11z"/>
<path d="M6930 990 c0 -5 5 -10 11 -10 5 0 7 5 4 10 -3 6 -8 10 -11 10 -2 0
-4 -4 -4 -10z"/>
</g>
</svg>
